AmstelvarA2-Roman_wght200.ufo
<glyph name="four" format="2">
  <advance width="1319"/>
  <unicode hex="0034"/>
  <outline>
    <contour>
      <point x="73" y="555" type="line"/>
      <point x="876" y="1551" type="line"/>
      <point x="938" y="1514" type="line"/>
      <point x="958" y="1498" type="line"/>
      <point x="952" y="510" type="line"/>
      <point x="952" y="99" type="line"/>
      <point x="1178" y="64" type="line"/>
      <point x="1178" y="0" type="line"/>
      <point x="603" y="0" type="line"/>
      <point x="603" y="64" type="line"/>
      <point x="839" y="99" type="line"/>
      <point x="848" y="508" type="line"/>
      <point x="848" y="1400" type="line"/>
      <point x="180" y="575" type="line"/>
      <point x="186" y="565" type="line"/>
      <point x="1254" y="539" type="line"/>
      <point x="1254" y="480" type="line"/>
      <point x="93" y="476" type="line"/>
    </contour>
  </outline>
</glyph>
<glyph name="five" format="2">
  <advance width="1145"/>
  <unicode hex="0035"/>
  <outline>
    <contour>
      <point x="27" y="143" type="qcurve"/>
      <point x="75" y="208" type="line"/>
      <point x="144" y="151"/>
      <point x="363" y="59"/>
      <point x="503" y="59" type="qcurve" smooth="yes"/>
      <point x="660" y="59"/>
      <point x="871" y="232"/>
      <point x="871" y="418" type="qcurve" smooth="yes"/>
      <point x="871" y="600"/>
      <point x="556" y="815"/>
      <point x="294" y="815" type="qcurve" smooth="yes"/>
      <point x="178" y="815" type="line"/>
      <point x="147" y="852" type="line"/>
      <point x="215" y="1471" type="line"/>
      <point x="242" y="1504" type="line"/>
      <point x="904" y="1504" type="line"/>
      <point x="898" y="1395" type="line"/>
      <point x="282" y="1395" type="line"/>
      <point x="272" y="1384" type="line"/>
      <point x="213" y="884" type="line"/>
      <point x="393" y="924" type="line"/>
      <point x="646" y="924"/>
      <point x="990" y="710"/>
      <point x="990" y="494" type="qcurve" smooth="yes"/>
      <point x="990" y="262"/>
      <point x="693" y="-22"/>
      <point x="492" y="-22" type="qcurve" smooth="yes"/>
      <point x="334" y="-22"/>
      <point x="95" y="70"/>
    </contour>
  </outline>
</glyph>
<glyph name="nine" format="2">
  <advance width="1161"/>
  <unicode hex="0039"/>
  <outline>
    <contour>
      <point x="76" y="1005" type="qcurve" smooth="yes"/>
      <point x="76" y="1237"/>
      <point x="344" y="1523"/>
      <point x="538" y="1523" type="qcurve" smooth="yes"/>
      <point x="764" y="1523"/>
      <point x="1062" y="1158"/>
      <point x="1062" y="875" type="qcurve" smooth="yes"/>
      <point x="1062" y="547"/>
      <point x="631" y="29"/>
      <point x="248" y="-87" type="qcurve"/>
      <point x="226" y="-26" type="line"/>
      <point x="560" y="85"/>
      <point x="947" y="507"/>
      <point x="947" y="878" type="qcurve" smooth="yes"/>
      <point x="947" y="1158"/>
      <point x="705" y="1455"/>
      <point x="542" y="1455" type="qcurve" smooth="yes"/>
      <point x="363" y="1455"/>
      <point x="195" y="1225"/>
      <point x="195" y="1038" type="qcurve" smooth="yes"/>
      <point x="195" y="853"/>
      <point x="401" y="668"/>
      <point x="580" y="668" type="qcurve" smooth="yes"/>
      <point x="632" y="668"/>
      <point x="724" y="687"/>
      <point x="774" y="709" type="qcurve"/>
      <point x="798" y="663" type="line"/>
      <point x="754" y="622"/>
      <point x="625" y="568"/>
      <point x="527" y="568" type="qcurve" smooth="yes"/>
      <point x="322" y="568"/>
      <point x="76" y="808"/>
    </contour>
  </outline>
</glyph>
<glyph name="H" format="2">
  <advance width="1748"/>
  <unicode hex="0048"/>
  <anchor x="872" y="0" name="bottom"/>
  <anchor x="871" y="1079" name="center"/>
  <anchor x="872" y="1500" name="top"/>
  <anchor x="25" y="1500" name="tonos"/>
  <outline>
    <contour>
      <point x="95" y="0" type="line"/>
      <point x="95" y="64" type="line"/>
      <point x="315" y="99" type="line"/>
      <point x="316" y="754" type="line"/>
      <point x="315" y="1393" type="line"/>
      <point x="95" y="1427" type="line"/>
      <point x="95" y="1500" type="line"/>
      <point x="647" y="1500" type="line"/>
      <point x="647" y="1427" type="line"/>
      <point x="427" y="1393" type="line"/>
      <point x="425" y="754" type="line"/>
      <point x="427" y="99" type="line"/>
      <point x="647" y="64" type="line"/>
      <point x="647" y="0" type="line"/>
    </contour>
    <contour>
      <point x="371" y="740" type="line"/>
      <point x="371" y="820" type="line"/>
      <point x="873" y="816" type="line"/>
      <point x="1376" y="820" type="line"/>
      <point x="1376" y="740" type="line"/>
      <point x="873" y="740" type="line"/>
    </contour>
    <contour>
      <point x="1101" y="0" type="line"/>
      <point x="1101" y="64" type="line"/>
      <point x="1321" y="99" type="line"/>
      <point x="1322" y="754" type="line"/>
      <point x="1321" y="1393" type="line"/>
      <point x="1101" y="1427" type="line"/>
      <point x="1101" y="1500" type="line"/>
      <point x="1653" y="1500" type="line"/>
      <point x="1653" y="1427" type="line"/>
      <point x="1433" y="1393" type="line"/>
      <point x="1431" y="754" type="line"/>
      <point x="1433" y="99" type="line"/>
      <point x="1653" y="64" type="line"/>
      <point x="1653" y="0" type="line"/>
    </contour>
  </outline>
</glyph>
<glyph name="L" format="2">
  <advance width="1325"/>
  <unicode hex="004C"/>
  <anchor x="705" y="0" name="bottom"/>
  <anchor x="928" y="750" name="centerright"/>
  <anchor x="632" y="1500" name="top"/>
  <anchor x="784" y="1001" name="topright"/>
  <anchor x="370" y="750" name="center"/>
  <outline>
    <contour>
      <point x="95" y="0" type="line"/>
      <point x="95" y="64" type="line"/>
      <point x="315" y="96" type="line"/>
      <point x="316" y="754" type="line"/>
      <point x="315" y="1393" type="line"/>
      <point x="95" y="1427" type="line"/>
      <point x="95" y="1500" type="line"/>
      <point x="670" y="1500" type="line"/>
      <point x="670" y="1427" type="line"/>
      <point x="427" y="1393" type="line"/>
      <point x="425" y="754" type="line"/>
      <point x="427" y="93" type="line"/>
      <point x="467" y="66" type="line"/>
      <point x="1117" y="66" type="line"/>
      <point x="1203" y="430" type="line"/>
      <point x="1283" y="430" type="line"/>
      <point x="1232" y="0" type="line"/>
    </contour>
  </outline>
</glyph>
<glyph name="N" format="2">
  <advance width="1632"/>
  <unicode hex="004E"/>
  <anchor x="807" y="0" name="bottom"/>
  <anchor x="807" y="1500" name="top"/>
  <outline>
    <contour>
      <point x="95" y="0" type="line"/>
      <point x="95" y="64" type="line"/>
      <point x="315" y="99" type="line"/>
      <point x="316" y="754" type="line"/>
      <point x="315" y="1393" type="line"/>
      <point x="95" y="1427" type="line"/>
      <point x="95" y="1500" type="line"/>
      <point x="413" y="1500" type="line"/>
      <point x="862" y="833" type="line"/>
      <point x="1187" y="356" type="line"/>
      <point x="1251" y="253" type="line"/>
      <point x="1260" y="256" type="line"/>
      <point x="1256" y="377" type="line"/>
      <point x="1257" y="754" type="line"/>
      <point x="1256" y="1393" type="line"/>
      <point x="1016" y="1427" type="line"/>
      <point x="1016" y="1500" type="line"/>
      <point x="1549" y="1500" type="line"/>
      <point x="1549" y="1427" type="line"/>
      <point x="1329" y="1393" type="line"/>
      <point x="1328" y="754" type="line"/>
      <point x="1325" y="0" type="line"/>
      <point x="1292" y="0" type="line"/>
      <point x="782" y="764" type="line"/>
      <point x="456" y="1235" type="line"/>
      <point x="392" y="1338" type="line"/>
      <point x="383" y="1335" type="line"/>
      <point x="388" y="1215" type="line"/>
      <point x="387" y="754" type="line"/>
      <point x="388" y="99" type="line"/>
      <point x="618" y="64" type="line"/>
      <point x="618" y="0" type="line"/>
    </contour>
  </outline>
</glyph>
<glyph name="P" format="2">
  <advance width="1239"/>
  <unicode hex="0050"/>
  <anchor x="592" y="0" name="bottom"/>
  <anchor x="627" y="1500" name="top"/>
  <outline>
    <contour>
      <point x="95" y="0" type="line"/>
      <point x="95" y="64" type="line"/>
      <point x="315" y="101" type="line"/>
      <point x="316" y="754" type="line"/>
      <point x="315" y="1393" type="line"/>
      <point x="95" y="1427" type="line"/>
      <point x="95" y="1500" type="line"/>
      <point x="679" y="1500" type="line" smooth="yes"/>
      <point x="917" y="1500"/>
      <point x="1164" y="1284"/>
      <point x="1164" y="1072" type="qcurve" smooth="yes"/>
      <point x="1164" y="866"/>
      <point x="901" y="599"/>
      <point x="662" y="599" type="qcurve" smooth="yes"/>
      <point x="566" y="599"/>
      <point x="413" y="614"/>
      <point x="365" y="621" type="qcurve"/>
      <point x="368" y="690" type="line"/>
      <point x="428" y="679"/>
      <point x="566" y="669"/>
      <point x="653" y="669" type="qcurve" smooth="yes"/>
      <point x="844" y="669"/>
      <point x="1044" y="883"/>
      <point x="1044" y="1072" type="qcurve" smooth="yes"/>
      <point x="1044" y="1250"/>
      <point x="854" y="1428"/>
      <point x="675" y="1428" type="qcurve" smooth="yes"/>
      <point x="461" y="1428" type="line"/>
      <point x="427" y="1406" type="line"/>
      <point x="425" y="764" type="line"/>
      <point x="426" y="96" type="line"/>
      <point x="693" y="64" type="line"/>
      <point x="693" y="0" type="line"/>
    </contour>
  </outline>
</glyph>
<glyph name="R" format="2">
  <advance width="1351"/>
  <unicode hex="0052"/>
  <anchor x="759" y="0" name="bottom"/>
  <anchor x="642" y="1500" name="top"/>
  <outline>
    <contour>
      <point x="95" y="0" type="line"/>
      <point x="95" y="64" type="line"/>
      <point x="315" y="100" type="line"/>
      <point x="316" y="794" type="line"/>
      <point x="315" y="1393" type="line"/>
      <point x="95" y="1427" type="line"/>
      <point x="95" y="1500" type="line"/>
      <point x="670" y="1500" type="line" smooth="yes"/>
      <point x="878" y="1500"/>
      <point x="1077" y="1315"/>
      <point x="1077" y="1149" type="qcurve" smooth="yes"/>
      <point x="1077" y="966"/>
      <point x="833" y="736"/>
      <point x="669" y="736" type="qcurve" smooth="yes"/>
      <point x="608" y="736"/>
      <point x="417" y="739"/>
      <point x="360" y="741" type="qcurve"/>
      <point x="360" y="803" type="line"/>
      <point x="622" y="803" type="line" smooth="yes"/>
      <point x="797" y="803"/>
      <point x="956" y="986"/>
      <point x="956" y="1137" type="qcurve" smooth="yes"/>
      <point x="956" y="1275"/>
      <point x="818" y="1428"/>
      <point x="665" y="1428" type="qcurve" smooth="yes"/>
      <point x="457" y="1428" type="line"/>
      <point x="428" y="1410" type="line"/>
      <point x="425" y="794" type="line"/>
      <point x="427" y="100" type="line"/>
      <point x="680" y="64" type="line"/>
      <point x="680" y="0" type="line"/>
    </contour>
    <contour>
      <point x="605" y="760" type="line"/>
      <point x="726" y="776" type="line"/>
      <point x="1096" y="279" type="line" smooth="yes"/>
      <point x="1202" y="137"/>
      <point x="1329" y="65"/>
      <point x="1394" y="64" type="qcurve"/>
      <point x="1394" y="0" type="line"/>
      <point x="1187" y="0" type="line"/>
      <point x="1154" y="20" type="line"/>
    </contour>
  </outline>
</glyph>
<glyph name="W" format="2">
  <advance width="2180"/>
  <unicode hex="0057"/>
  <anchor x="1059" y="0" name="bottom"/>
  <anchor x="1059" y="1500" name="top"/>
  <outline>
    <contour>
      <point x="697" y="-8" type="line"/>
      <point x="418" y="716" type="line"/>
      <point x="148" y="1387" type="line"/>
      <point x="-17" y="1427" type="line"/>
      <point x="-17" y="1500" type="line"/>
      <point x="487" y="1500" type="line"/>
      <point x="487" y="1427" type="line"/>
      <point x="273" y="1385" type="line"/>
      <point x="519" y="754" type="line"/>
      <point x="692" y="303" type="line"/>
      <point x="731" y="189" type="line"/>
      <point x="741" y="189" type="line"/>
      <point x="779" y="303" type="line"/>
      <point x="909" y="658" type="line"/>
      <point x="1045" y="1031" type="line"/>
      <point x="913" y="1393" type="line"/>
      <point x="747" y="1432" type="line"/>
      <point x="747" y="1500" type="line"/>
      <point x="1239" y="1500" type="line"/>
      <point x="1239" y="1432" type="line"/>
      <point x="1038" y="1391" type="line"/>
      <point x="1245" y="810" type="line"/>
      <point x="1426" y="309" type="line"/>
      <point x="1461" y="195" type="line"/>
      <point x="1472" y="195" type="line"/>
      <point x="1513" y="309" type="line"/>
      <point x="1707" y="795" type="line"/>
      <point x="1938" y="1390" type="line"/>
      <point x="1717" y="1427" type="line"/>
      <point x="1717" y="1500" type="line"/>
      <point x="2217" y="1500" type="line"/>
      <point x="2217" y="1427" type="line"/>
      <point x="2031" y="1385" type="line"/>
      <point x="1779" y="767" type="line"/>
      <point x="1464" y="-8" type="line"/>
      <point x="1428" y="-8" type="line"/>
      <point x="1127" y="813" type="line"/>
      <point x="1089" y="929" type="line"/>
      <point x="1079" y="929" type="line"/>
      <point x="1040" y="813" type="line"/>
      <point x="732" y="-8" type="line"/>
    </contour>
  </outline>
</glyph>
<glyph name="Z" format="2">
  <advance width="1195"/>
  <unicode hex="005A"/>
  <anchor x="610" y="0" name="bottom"/>
  <anchor x="610" y="1500" name="top"/>
  <outline>
    <contour>
      <point x="95" y="0" type="line"/>
      <point x="65" y="92" type="line"/>
      <point x="985" y="1420" type="line"/>
      <point x="976" y="1428" type="line"/>
      <point x="251" y="1428" type="line"/>
      <point x="215" y="1068" type="line"/>
      <point x="135" y="1068" type="line"/>
      <point x="135" y="1500" type="line"/>
      <point x="1105" y="1500" type="line"/>
      <point x="1105" y="1409" type="line"/>
      <point x="178" y="72" type="line"/>
      <point x="186" y="66" type="line"/>
      <point x="991" y="66" type="line"/>
      <point x="1067" y="372" type="line"/>
      <point x="1139" y="372" type="line"/>
      <point x="1099" y="0" type="line"/>
    </contour>
  </outline>
</glyph>
<glyph name="c" format="2">
  <advance width="1098"/>
  <unicode hex="0063"/>
  <guideline x="551" y="1022" angle="0.0" identifier="uY5wl0yAtZ"/>
  <anchor x="552" y="0" name="bottom"/>
  <anchor x="523" y="1000" name="top"/>
  <outline>
    <contour>
      <point x="89" y="488" type="qcurve" smooth="yes"/>
      <point x="89" y="713"/>
      <point x="370" y="1020"/>
      <point x="595" y="1020" type="qcurve" smooth="yes"/>
      <point x="685" y="1020"/>
      <point x="815" y="985"/>
      <point x="850" y="962" type="qcurve"/>
      <point x="870" y="1004" type="line"/>
      <point x="941" y="1004" type="line"/>
      <point x="941" y="695" type="line"/>
      <point x="869" y="695" type="line"/>
      <point x="852" y="756" type="line" smooth="yes"/>
      <point x="827" y="844"/>
      <point x="688" y="952"/>
      <point x="563" y="952" type="qcurve" smooth="yes"/>
      <point x="400" y="952"/>
      <point x="201" y="731"/>
      <point x="201" y="506" type="qcurve" smooth="yes"/>
      <point x="201" y="290"/>
      <point x="420" y="58"/>
      <point x="602" y="58" type="qcurve" smooth="yes"/>
      <point x="734" y="58"/>
      <point x="926" y="145"/>
      <point x="986" y="206" type="qcurve"/>
      <point x="1017" y="168" type="line"/>
      <point x="963" y="91"/>
      <point x="763" y="-22"/>
      <point x="601" y="-22" type="qcurve" smooth="yes"/>
      <point x="386" y="-22"/>
      <point x="89" y="255"/>
    </contour>
  </outline>
</glyph>
<glyph name="t" format="2">
  <advance width="711"/>
  <unicode hex="0074"/>
  <anchor x="298" y="0" name="bottom"/>
  <anchor x="288" y="622" name="center"/>
  <anchor x="298" y="1179" name="top"/>
  <anchor x="498" y="1000" name="topright"/>
  <outline>
    <contour>
      <point x="51" y="906" type="line"/>
      <point x="51" y="953" type="line"/>
      <point x="165" y="974"/>
      <point x="312" y="1089"/>
      <point x="334" y="1180" type="qcurve"/>
      <point x="352" y="1180" type="line"/>
      <point x="372" y="1156" type="line"/>
      <point x="367" y="969" type="line"/>
      <point x="623" y="969" type="line"/>
      <point x="623" y="906" type="line"/>
      <point x="366" y="906" type="line"/>
      <point x="360" y="525" type="line"/>
      <point x="363" y="186" type="line" smooth="yes"/>
      <point x="363" y="121"/>
      <point x="432" y="78"/>
      <point x="533" y="79" type="qcurve" smooth="yes"/>
      <point x="621" y="79" type="line"/>
      <point x="621" y="29" type="line"/>
      <point x="408" y="-8" type="line"/>
      <point x="331" y="-8"/>
      <point x="256" y="82"/>
      <point x="256" y="172" type="qcurve" smooth="yes"/>
      <point x="256" y="525" type="line"/>
      <point x="256" y="899" type="line"/>
    </contour>
  </outline>
</glyph>
<glyph name="u" format="2">
  <advance width="1239"/>
  <unicode hex="0075"/>
  <anchor x="608" y="0" name="bottom"/>
  <anchor x="1059" y="20" name="ogonek"/>
  <anchor x="608" y="998" name="top"/>
  <anchor x="975" y="998" name="topright"/>
  <outline>
    <contour>
      <point x="69" y="903" type="line"/>
      <point x="69" y="964" type="line"/>
      <point x="275" y="998" type="line"/>
      <point x="310" y="998" type="line"/>
      <point x="335" y="962" type="line"/>
      <point x="333" y="472" type="line"/>
      <point x="333" y="263" type="line" smooth="yes"/>
      <point x="333" y="188"/>
      <point x="451" y="66"/>
      <point x="560" y="66" type="qcurve" smooth="yes"/>
      <point x="648" y="66"/>
      <point x="834" y="146"/>
      <point x="895" y="221" type="qcurve"/>
      <point x="896" y="472" type="line"/>
      <point x="894" y="873" type="line"/>
      <point x="744" y="903" type="line"/>
      <point x="744" y="964" type="line"/>
      <point x="940" y="998" type="line"/>
      <point x="975" y="998" type="line"/>
      <point x="1000" y="962" type="line"/>
      <point x="999" y="473" type="line"/>
      <point x="1000" y="119" type="line"/>
      <point x="1160" y="89" type="line"/>
      <point x="1160" y="34" type="line"/>
      <point x="954" y="0" type="line"/>
      <point x="919" y="27" type="line"/>
      <point x="895" y="147" type="line"/>
      <point x="835" y="72"/>
      <point x="636" y="-21"/>
      <point x="529" y="-21" type="qcurve" smooth="yes"/>
      <point x="379" y="-21"/>
      <point x="229" y="128"/>
      <point x="229" y="258" type="qcurve" smooth="yes"/>
      <point x="229" y="330"/>
      <point x="232" y="448"/>
      <point x="232" y="473" type="qcurve" smooth="yes"/>
      <point x="229" y="873" type="line"/>
    </contour>
  </outline>
</glyph>
<glyph name="asciitilde" format="2">
  <advance width="1213"/>
  <unicode hex="007E"/>
  <outline>
    <contour>
      <point x="43" y="601" type="line"/>
      <point x="105" y="694"/>
      <point x="312" y="777"/>
      <point x="409" y="777" type="qcurve"/>
      <point x="874" y="631" type="line"/>
      <point x="934" y="631"/>
      <point x="1064" y="726"/>
      <point x="1112" y="794" type="qcurve"/>
      <point x="1170" y="761" type="line"/>
      <point x="1118" y="652"/>
      <point x="941" y="546"/>
      <point x="809" y="546" type="qcurve"/>
      <point x="345" y="695" type="line"/>
      <point x="287" y="696"/>
      <point x="144" y="615"/>
      <point x="87" y="560" type="qcurve"/>
    </contour>
  </outline>
</glyph>
<glyph name="brokenbar" format="2">
  <advance width="654"/>
  <unicode hex="00A6"/>
  <outline>
    <contour>
      <point x="247" y="688" type="line"/>
      <point x="256" y="900" type="line"/>
      <point x="244" y="1208" type="line"/>
      <point x="232" y="1480" type="line"/>
      <point x="422" y="1550" type="line"/>
      <point x="410" y="1208" type="line"/>
      <point x="396" y="900" type="line"/>
      <point x="398" y="738" type="line"/>
    </contour>
    <contour>
      <point x="232" y="-540" type="line"/>
      <point x="244" y="-128" type="line"/>
      <point x="258" y="180" type="line"/>
      <point x="256" y="348" type="line"/>
      <point x="407" y="408" type="line"/>
      <point x="398" y="180" type="line"/>
      <point x="410" y="-128" type="line"/>
      <point x="422" y="-451" type="line"/>
    </contour>
  </outline>
</glyph>
<glyph name="section" format="2">
  <advance width="1138"/>
  <unicode hex="00A7"/>
  <outline>
    <contour>
      <point x="1010" y="137" type="qcurve" smooth="yes"/>
      <point x="1010" y="-35"/>
      <point x="796" y="-253"/>
      <point x="617" y="-253" type="qcurve" smooth="yes"/>
      <point x="504" y="-253"/>
      <point x="338" y="-187"/>
      <point x="287" y="-135" type="qcurve"/>
      <point x="246" y="-235" type="line"/>
      <point x="150" y="-235" type="line"/>
      <point x="150" y="196" type="line"/>
      <point x="256" y="196" type="line"/>
      <point x="274" y="103" type="line" smooth="yes"/>
      <point x="299" y="-27"/>
      <point x="480" y="-134"/>
      <point x="604" y="-134" type="qcurve" smooth="yes"/>
      <point x="739" y="-134"/>
      <point x="858" y="-9"/>
      <point x="858" y="95" type="qcurve" smooth="yes"/>
      <point x="858" y="220"/>
      <point x="696" y="334"/>
      <point x="525" y="401" type="qcurve" smooth="yes"/>
      <point x="366" y="464"/>
      <point x="192" y="634"/>
      <point x="192" y="776" type="qcurve" smooth="yes"/>
      <point x="192" y="860"/>
      <point x="260" y="1003"/>
      <point x="320" y="1049" type="qcurve"/>
      <point x="279" y="1086"/>
      <point x="244" y="1179"/>
      <point x="244" y="1239" type="qcurve" smooth="yes"/>
      <point x="244" y="1349"/>
      <point x="413" y="1512"/>
      <point x="566" y="1512" type="qcurve" smooth="yes"/>
      <point x="643" y="1512"/>
      <point x="751" y="1472"/>
      <point x="789" y="1449" type="qcurve"/>
      <point x="803" y="1480" type="line"/>
      <point x="894" y="1480" type="line"/>
      <point x="894" y="1184" type="line"/>
      <point x="788" y="1184" type="line"/>
      <point x="767" y="1297" type="line" smooth="yes"/>
      <point x="759" y="1341"/>
      <point x="652" y="1401"/>
      <point x="570" y="1401" type="qcurve" smooth="yes"/>
      <point x="479" y="1401"/>
      <point x="396" y="1329"/>
      <point x="396" y="1270" type="qcurve" smooth="yes"/>
      <point x="396" y="1208"/>
      <point x="483" y="1141"/>
      <point x="640" y="1097" type="qcurve" smooth="yes"/>
      <point x="794" y="1054"/>
      <point x="979" y="912"/>
      <point x="979" y="767" type="qcurve" smooth="yes"/>
      <point x="979" y="668"/>
      <point x="860" y="516"/>
      <point x="756" y="485" type="qcurve"/>
      <point x="869" y="430"/>
      <point x="1010" y="268"/>
    </contour>
    <contour>
      <point x="332" y="810" type="qcurve" smooth="yes"/>
      <point x="332" y="732"/>
      <point x="442" y="615"/>
      <point x="602" y="551" type="qcurve"/>
      <point x="702" y="551"/>
      <point x="835" y="657"/>
      <point x="835" y="740" type="qcurve" smooth="yes"/>
      <point x="835" y="824"/>
      <point x="697" y="899"/>
      <point x="533" y="947" type="qcurve" smooth="yes"/>
      <point x="506" y="955"/>
      <point x="459" y="971"/>
      <point x="438" y="980" type="qcurve"/>
      <point x="388" y="958"/>
      <point x="332" y="870"/>
    </contour>
  </outline>
</glyph>
<glyph name="copyright" format="2">
  <advance width="2098"/>
  <unicode hex="00A9"/>
  <outline>
    <contour>
      <point x="574" y="662" type="qcurve" smooth="yes"/>
      <point x="574" y="901"/>
      <point x="835" y="1209"/>
      <point x="1061" y="1209" type="qcurve" smooth="yes"/>
      <point x="1124" y="1209"/>
      <point x="1245" y="1176"/>
      <point x="1275" y="1152" type="qcurve"/>
      <point x="1307" y="1206" type="line"/>
      <point x="1395" y="1177" type="line"/>
      <point x="1411" y="851" type="line"/>
      <point x="1313" y="834" type="line"/>
      <point x="1264" y="1019" type="line"/>
      <point x="1222" y="1053"/>
      <point x="1119" y="1098"/>
      <point x="1062" y="1098" type="qcurve" smooth="yes"/>
      <point x="923" y="1098"/>
      <point x="754" y="898"/>
      <point x="754" y="704" type="qcurve" smooth="yes"/>
      <point x="754" y="502"/>
      <point x="954" y="295"/>
      <point x="1085" y="295" type="qcurve" smooth="yes"/>
      <point x="1204" y="295"/>
      <point x="1387" y="398"/>
      <point x="1435" y="455" type="qcurve"/>
      <point x="1495" y="380" type="line"/>
      <point x="1433" y="287"/>
      <point x="1195" y="165"/>
      <point x="1085" y="165" type="qcurve" smooth="yes"/>
      <point x="854" y="165"/>
      <point x="574" y="433"/>
    </contour>
    <contour>
      <point x="126" y="685" type="qcurve" smooth="yes"/>
      <point x="126" y="1061"/>
      <point x="647" y="1570"/>
      <point x="1051" y="1570" type="qcurve" smooth="yes"/>
      <point x="1453" y="1570"/>
      <point x="1972" y="1087"/>
      <point x="1972" y="706" type="qcurve" smooth="yes"/>
      <point x="1972" y="288"/>
      <point x="1460" y="-242"/>
      <point x="1063" y="-242" type="qcurve" smooth="yes"/>
      <point x="654" y="-242"/>
      <point x="126" y="276"/>
    </contour>
    <contour>
      <point x="291" y="681" type="qcurve" smooth="yes"/>
      <point x="291" y="335"/>
      <point x="748" y="-118"/>
      <point x="1079" y="-118" type="qcurve" smooth="yes"/>
      <point x="1400" y="-118"/>
      <point x="1807" y="360"/>
      <point x="1807" y="698" type="qcurve" smooth="yes"/>
      <point x="1807" y="1007"/>
      <point x="1377" y="1446"/>
      <point x="1031" y="1446" type="qcurve" smooth="yes"/>
      <point x="703" y="1446"/>
      <point x="291" y="998"/>
    </contour>
  </outline>
</glyph>
<glyph name="twosuperior" format="2">
  <advance width="844"/>
  <unicode hex="00B2"/>
  <outline>
    <contour>
      <point x="104" y="671" type="line"/>
      <point x="102" y="777" type="line"/>
      <point x="118" y="851"/>
      <point x="231" y="1007"/>
      <point x="375" y="1083" type="qcurve" smooth="yes"/>
      <point x="493" y="1145"/>
      <point x="557" y="1233"/>
      <point x="554" y="1298" type="qcurve" smooth="yes"/>
      <point x="551" y="1355"/>
      <point x="468" y="1409"/>
      <point x="414" y="1409" type="qcurve" smooth="yes"/>
      <point x="331" y="1409"/>
      <point x="225" y="1365"/>
      <point x="170" y="1315" type="qcurve"/>
      <point x="97" y="1398" type="line"/>
      <point x="147" y="1449"/>
      <point x="300" y="1520"/>
      <point x="428" y="1520" type="qcurve" smooth="yes"/>
      <point x="549" y="1520"/>
      <point x="723" y="1413"/>
      <point x="723" y="1312" type="qcurve" smooth="yes"/>
      <point x="723" y="1196"/>
      <point x="558" y="1051"/>
      <point x="479" y="1013" type="qcurve" smooth="yes"/>
      <point x="352" y="951"/>
      <point x="251" y="860"/>
      <point x="238" y="826" type="qcurve"/>
      <point x="238" y="800" type="line"/>
      <point x="743" y="800" type="line"/>
      <point x="743" y="671" type="line"/>
    </contour>
  </outline>
</glyph>
<glyph name="ordmasculine" format="2">
  <advance width="1104"/>
  <unicode hex="00BA"/>
  <outline>
    <contour>
      <point x="97" y="1094" type="qcurve" smooth="yes"/>
      <point x="97" y="1280"/>
      <point x="342" y="1542"/>
      <point x="550" y="1542" type="qcurve" smooth="yes"/>
      <point x="759" y="1542"/>
      <point x="1007" y="1297"/>
      <point x="1007" y="1099" type="qcurve" smooth="yes"/>
      <point x="1007" y="914"/>
      <point x="764" y="646"/>
      <point x="555" y="646" type="qcurve" smooth="yes"/>
      <point x="346" y="646"/>
      <point x="97" y="894"/>
    </contour>
    <contour>
      <point x="275" y="1111" type="qcurve" smooth="yes"/>
      <point x="275" y="954"/>
      <point x="427" y="732"/>
      <point x="548" y="732" type="qcurve" smooth="yes"/>
      <point x="678" y="732"/>
      <point x="823" y="934"/>
      <point x="823" y="1098" type="qcurve" smooth="yes"/>
      <point x="823" y="1250"/>
      <point x="671" y="1450"/>
      <point x="550" y="1450" type="qcurve" smooth="yes"/>
      <point x="418" y="1450"/>
      <point x="274" y="1269"/>
    </contour>
  </outline>
</glyph>
<glyph name="eth" format="2">
  <advance width="1222"/>
  <unicode hex="00F0"/>
  <outline>
    <contour>
      <point x="89" y="490" type="qcurve" smooth="yes"/>
      <point x="89" y="707"/>
      <point x="375" y="1004"/>
      <point x="607" y="1004" type="qcurve" smooth="yes"/>
      <point x="840" y="1004"/>
      <point x="1058" y="721"/>
      <point x="1069" y="496" type="qcurve"/>
      <point x="950" y="496" type="line"/>
      <point x="970" y="661"/>
      <point x="784" y="888"/>
      <point x="607" y="888" type="qcurve" smooth="yes"/>
      <point x="443" y="888"/>
      <point x="268" y="690"/>
      <point x="269" y="510" type="qcurve" smooth="yes"/>
      <point x="270" y="329"/>
      <point x="454" y="87"/>
      <point x="605" y="88" type="qcurve" smooth="yes"/>
      <point x="778" y="89"/>
      <point x="956" y="363"/>
      <point x="956" y="621" type="qcurve" smooth="yes"/>
      <point x="956" y="981"/>
      <point x="601" y="1387"/>
      <point x="303" y="1486" type="qcurve"/>
      <point x="339" y="1584" type="line"/>
      <point x="725" y="1474"/>
      <point x="1135" y="952"/>
      <point x="1135" y="624" type="qcurve" smooth="yes"/>
      <point x="1135" y="325"/>
      <point x="862" y="-22"/>
      <point x="612" y="-22" type="qcurve" smooth="yes"/>
      <point x="379" y="-22"/>
      <point x="89" y="257"/>
    </contour>
    <contour>
      <point x="447" y="1214" type="line"/>
      <point x="913" y="1534" type="line"/>
      <point x="980" y="1445" type="line"/>
      <point x="514" y="1125" type="line"/>
    </contour>
  </outline>
</glyph>
<glyph name="divide" format="2">
  <advance width="1074"/>
  <unicode hex="00F7"/>
  <outline>
    <contour>
      <point x="105" y="556" type="line"/>
      <point x="105" y="708" type="line"/>
      <point x="969" y="708" type="line"/>
      <point x="969" y="556" type="line"/>
    </contour>
    <contour>
      <point x="407" y="307" type="qcurve" smooth="yes"/>
      <point x="407" y="359"/>
      <point x="480" y="437"/>
      <point x="537" y="437" type="qcurve" smooth="yes"/>
      <point x="594" y="437"/>
      <point x="667" y="359"/>
      <point x="667" y="307" type="qcurve" smooth="yes"/>
      <point x="667" y="256"/>
      <point x="594" y="178"/>
      <point x="537" y="178" type="qcurve" smooth="yes"/>
      <point x="480" y="178"/>
      <point x="407" y="256"/>
    </contour>
    <contour>
      <point x="407" y="958" type="qcurve" smooth="yes"/>
      <point x="407" y="1010"/>
      <point x="480" y="1088"/>
      <point x="537" y="1088" type="qcurve" smooth="yes"/>
      <point x="594" y="1088"/>
      <point x="667" y="1010"/>
      <point x="667" y="958" type="qcurve" smooth="yes"/>
      <point x="667" y="907"/>
      <point x="594" y="829"/>
      <point x="537" y="829" type="qcurve" smooth="yes"/>
      <point x="480" y="829"/>
      <point x="407" y="907"/>
    </contour>
  </outline>
</glyph>
<glyph name="thorn" format="2">
  <advance width="1206"/>
  <unicode hex="00FE"/>
  <outline>
    <contour>
      <point x="44" y="-480" type="line"/>
      <point x="44" y="-400" type="line"/>
      <point x="187" y="-365" type="line"/>
      <point x="189" y="427" type="line"/>
      <point x="188" y="1376" type="line"/>
      <point x="22" y="1406" type="line"/>
      <point x="22" y="1500" type="line"/>
      <point x="298" y="1534" type="line"/>
      <point x="330" y="1534" type="line"/>
      <point x="358" y="1502" type="line"/>
      <point x="357" y="862" type="line"/>
      <point x="407" y="932"/>
      <point x="576" y="1020"/>
      <point x="694" y="1020" type="qcurve" smooth="yes"/>
      <point x="876" y="1020"/>
      <point x="1113" y="754"/>
      <point x="1113" y="530" type="qcurve" smooth="yes"/>
      <point x="1113" y="286"/>
      <point x="867" y="-12"/>
      <point x="660" y="-12" type="qcurve" smooth="yes"/>
      <point x="558" y="-12"/>
      <point x="400" y="48"/>
      <point x="355" y="89" type="qcurve"/>
      <point x="357" y="-365" type="line"/>
      <point x="509" y="-400" type="line"/>
      <point x="509" y="-480" type="line"/>
    </contour>
    <contour>
      <point x="355" y="239" type="line"/>
      <point x="389" y="179"/>
      <point x="537" y="91"/>
      <point x="637" y="91" type="qcurve" smooth="yes"/>
      <point x="773" y="91"/>
      <point x="929" y="313"/>
      <point x="929" y="505" type="qcurve" smooth="yes"/>
      <point x="929" y="688"/>
      <point x="774" y="894"/>
      <point x="642" y="894" type="qcurve" smooth="yes"/>
      <point x="543" y="894"/>
      <point x="399" y="809"/>
      <point x="356" y="743" type="qcurve"/>
      <point x="353" y="427" type="line"/>
    </contour>
  </outline>
</glyph>
<glyph name="idotless" format="2">
  <advance width="625"/>
  <unicode hex="0131"/>
  <anchor x="317" y="0" name="bottom"/>
  <anchor x="309" y="991" name="top"/>
  <anchor x="474" y="0" name="ogonek"/>
  <outline>
    <contour>
      <point x="90" y="0" type="line"/>
      <point x="90" y="52" type="line"/>
      <point x="270" y="87" type="line"/>
      <point x="271" y="527" type="line"/>
      <point x="267" y="873" type="line"/>
      <point x="85" y="903" type="line"/>
      <point x="85" y="964" type="line"/>
      <point x="309" y="998" type="line"/>
      <point x="356" y="998" type="line"/>
      <point x="379" y="959" type="line"/>
      <point x="374" y="527" type="line"/>
      <point x="376" y="87" type="line"/>
      <point x="556" y="52" type="line"/>
      <point x="556" y="0" type="line"/>
    </contour>
  </outline>
</glyph>
<glyph name="Schwa" format="2">
  <advance width="1496"/>
  <unicode hex="018F"/>
  <outline>
    <contour>
      <point x="89" y="1199" type="line"/>
      <point x="187" y="1356"/>
      <point x="477" y="1519"/>
      <point x="694" y="1519" type="qcurve" smooth="yes"/>
      <point x="1027" y="1519"/>
      <point x="1391" y="1094"/>
      <point x="1391" y="789" type="qcurve" smooth="yes"/>
      <point x="1391" y="445"/>
      <point x="1007" y="-30"/>
      <point x="717" y="-30" type="qcurve" smooth="yes"/>
      <point x="441" y="-30"/>
      <point x="127" y="281"/>
      <point x="127" y="578" type="qcurve" smooth="yes"/>
      <point x="127" y="686" type="line"/>
      <point x="1253" y="686" type="line"/>
      <point x="1253" y="554" type="line"/>
      <point x="690" y="562" type="line"/>
      <point x="323" y="556" type="line"/>
      <point x="323" y="481" type="line" smooth="yes"/>
      <point x="323" y="315"/>
      <point x="528" y="97"/>
      <point x="727" y="97" type="qcurve" smooth="yes"/>
      <point x="937" y="97"/>
      <point x="1202" y="462"/>
      <point x="1200" y="749" type="qcurve" smooth="yes"/>
      <point x="1198" y="1047"/>
      <point x="885" y="1375"/>
      <point x="676" y="1375" type="qcurve" smooth="yes"/>
      <point x="494" y="1375"/>
      <point x="243" y="1234"/>
      <point x="182" y="1126" type="qcurve"/>
    </contour>
  </outline>
</glyph>
<glyph name="gravecomb" format="2">
  <advance width="306"/>
  <unicode hex="0300"/>
  <anchor x="153" y="1000" name="_top"/>
  <anchor x="153" y="1497" name="top"/>
  <outline>
    <contour>
      <point x="-119" y="1462" type="qcurve" smooth="yes"/>
      <point x="-121" y="1486"/>
      <point x="-81" y="1520"/>
      <point x="-58" y="1521" type="qcurve" smooth="yes"/>
      <point x="-32" y="1524"/>
      <point x="29" y="1484"/>
      <point x="56" y="1462" type="qcurve" smooth="yes"/>
      <point x="347" y="1215" type="line"/>
      <point x="306" y="1164" type="line"/>
      <point x="-56" y="1385" type="line" smooth="yes"/>
      <point x="-86" y="1400"/>
      <point x="-116" y="1429"/>
    </contour>
  </outline>
</glyph>
<glyph name="Delta" format="2">
  <advance width="1492"/>
  <unicode hex="0394"/>
  <outline>
    <contour>
      <point x="160" y="0" type="line"/>
      <point x="160" y="69" type="line"/>
      <point x="347" y="533" type="line"/>
      <point x="722" y="1508" type="line"/>
      <point x="784" y="1508" type="line"/>
      <point x="1167" y="531" type="line"/>
      <point x="1345" y="110" type="line"/>
      <point x="1345" y="0" type="line"/>
    </contour>
    <contour>
      <point x="258" y="80" type="line"/>
      <point x="738" y="78" type="line"/>
      <point x="1230" y="80" type="line"/>
      <point x="1069" y="489" type="line"/>
      <point x="742" y="1324" type="line"/>
      <point x="420" y="511" type="line"/>
    </contour>
  </outline>
</glyph>
<glyph name="Lambda" format="2">
  <advance width="1477"/>
  <unicode hex="039B"/>
  <outline>
    <contour>
      <point x="28" y="0" type="line"/>
      <point x="28" y="100" type="line"/>
      <point x="216" y="135" type="line"/>
      <point x="375" y="540" type="line"/>
      <point x="725" y="1508" type="line"/>
      <point x="779" y="1508" type="line"/>
      <point x="1135" y="549" type="line"/>
      <point x="1303" y="135" type="line"/>
      <point x="1481" y="100" type="line"/>
      <point x="1481" y="0" type="line"/>
      <point x="1002" y="0" type="line"/>
      <point x="1002" y="100" type="line"/>
      <point x="1181" y="131" type="line"/>
      <point x="1038" y="514" type="line"/>
      <point x="795" y="1181" type="line"/>
      <point x="750" y="1318" type="line"/>
      <point x="740" y="1318" type="line"/>
      <point x="694" y="1181" type="line"/>
      <point x="437" y="496" type="line"/>
      <point x="309" y="130" type="line"/>
      <point x="486" y="100" type="line"/>
      <point x="486" y="0" type="line"/>
    </contour>
  </outline>
</glyph>
<glyph name="eta" format="2">
  <advance width="1271"/>
  <unicode hex="03B7"/>
  <anchor x="580" y="1000" name="GRKtop"/>
  <outline>
    <contour>
      <point x="929" y="-480" type="line"/>
      <point x="894" y="-453" type="line"/>
      <point x="916" y="338" type="line"/>
      <point x="916" y="612" type="line" smooth="yes"/>
      <point x="916" y="746"/>
      <point x="809" y="877"/>
      <point x="707" y="877" type="qcurve"/>
      <point x="613" y="877"/>
      <point x="465" y="775"/>
      <point x="428" y="705" type="qcurve"/>
      <point x="426" y="551" type="line"/>
      <point x="436" y="20" type="line"/>
      <point x="290" y="0" type="line"/>
      <point x="255" y="27" type="line"/>
      <point x="265" y="723" type="line"/>
      <point x="263" y="810"/>
      <point x="227" y="858"/>
      <point x="185" y="867" type="qcurve" smooth="yes"/>
      <point x="121" y="880" type="line"/>
      <point x="121" y="974" type="line"/>
      <point x="303" y="1008" type="line"/>
      <point x="356" y="1008"/>
      <point x="416" y="917"/>
      <point x="429" y="835" type="qcurve"/>
      <point x="430" y="835" type="line"/>
      <point x="467" y="911"/>
      <point x="649" y="1021"/>
      <point x="766" y="1021" type="qcurve" smooth="yes"/>
      <point x="920" y="1021"/>
      <point x="1079" y="842"/>
      <point x="1083" y="652" type="qcurve" smooth="yes"/>
      <point x="1080" y="340" type="line"/>
      <point x="1090" y="-460" type="line"/>
    </contour>
  </outline>
</glyph>
<glyph name="kappa" format="2">
  <advance width="1149"/>
  <unicode hex="03BA"/>
  <outline>
    <contour>
      <point x="208" y="0" type="line"/>
      <point x="211" y="487" type="line"/>
      <point x="201" y="980" type="line"/>
      <point x="362" y="1000" type="line"/>
      <point x="397" y="973" type="line"/>
      <point x="377" y="467" type="line"/>
      <point x="379" y="0" type="line"/>
    </contour>
    <contour>
      <point x="288" y="140" type="line"/>
      <point x="288" y="302" type="line"/>
      <point x="726" y="857" type="line" smooth="yes"/>
      <point x="778" y="923"/>
      <point x="886" y="1008"/>
      <point x="989" y="1010" type="qcurve"/>
      <point x="1016" y="976" type="line"/>
      <point x="1000" y="826" type="line"/>
      <point x="917" y="826"/>
      <point x="839" y="804"/>
      <point x="798" y="754" type="qcurve" smooth="yes"/>
    </contour>
    <contour>
      <point x="905" y="-8" type="line"/>
      <point x="860" y="-8"/>
      <point x="799" y="31"/>
      <point x="767" y="93" type="qcurve" smooth="yes"/>
      <point x="537" y="534" type="line"/>
      <point x="639" y="650" type="line"/>
      <point x="871" y="248" type="line" smooth="yes"/>
      <point x="919" y="164"/>
      <point x="976" y="118"/>
      <point x="1017" y="118" type="qcurve" smooth="yes"/>
      <point x="1080" y="118" type="line"/>
      <point x="1080" y="34" type="line"/>
    </contour>
  </outline>
</glyph>
<glyph name="pi" format="2">
  <advance width="1284"/>
  <unicode hex="03C0"/>
  <outline>
    <contour>
      <point x="1201" y="826" type="line"/>
      <point x="78" y="848" type="line"/>
      <point x="78" y="942" type="line"/>
      <point x="224" y="990" type="line"/>
      <point x="1190" y="1010" type="line"/>
      <point x="1217" y="976" type="line"/>
    </contour>
    <contour>
      <point x="283" y="0" type="line"/>
      <point x="248" y="27" type="line"/>
      <point x="301" y="471" type="line"/>
      <point x="352" y="917" type="line"/>
      <point x="465" y="917" type="line"/>
      <point x="452" y="465" type="line"/>
      <point x="444" y="20" type="line"/>
    </contour>
    <contour>
      <point x="997" y="-8" type="line"/>
      <point x="922" y="-8"/>
      <point x="853" y="99"/>
      <point x="854" y="285" type="qcurve" smooth="yes"/>
      <point x="858" y="917" type="line"/>
      <point x="999" y="917" type="line"/>
      <point x="1001" y="285" type="line" smooth="yes"/>
      <point x="1001" y="194"/>
      <point x="1060" y="121"/>
      <point x="1091" y="118" type="qcurve"/>
      <point x="1173" y="118" type="line"/>
      <point x="1173" y="34" type="line"/>
    </contour>
  </outline>
</glyph>
<glyph name="rho" format="2">
  <advance width="1178"/>
  <unicode hex="03C1"/>
  <outline>
    <contour>
      <point x="166" y="-480" type="line"/>
      <point x="131" y="-453" type="line"/>
      <point x="141" y="110" type="line"/>
      <point x="141" y="423" type="line" smooth="yes"/>
      <point x="141" y="730"/>
      <point x="392" y="1022"/>
      <point x="611" y="1022" type="qcurve" smooth="yes"/>
      <point x="848" y="1022"/>
      <point x="1085" y="738"/>
      <point x="1085" y="514" type="qcurve" smooth="yes"/>
      <point x="1085" y="290"/>
      <point x="841" y="-11"/>
      <point x="617" y="-12" type="qcurve" smooth="yes"/>
      <point x="486" y="-13"/>
      <point x="288" y="91"/>
      <point x="231" y="180" type="qcurve"/>
      <point x="231" y="273" type="line"/>
      <point x="278" y="273" type="line"/>
      <point x="341" y="176"/>
      <point x="510" y="91"/>
      <point x="610" y="91" type="qcurve" smooth="yes"/>
      <point x="735" y="91"/>
      <point x="901" y="301"/>
      <point x="901" y="506" type="qcurve" smooth="yes"/>
      <point x="901" y="699"/>
      <point x="737" y="894"/>
      <point x="594" y="894" type="qcurve" smooth="yes"/>
      <point x="444" y="894"/>
      <point x="302" y="674"/>
      <point x="305" y="411" type="qcurve"/>
      <point x="307" y="110" type="line"/>
      <point x="327" y="-460" type="line"/>
    </contour>
  </outline>
</glyph>
<glyph name="chi" format="2">
  <advance width="1071"/>
  <unicode hex="03C7"/>
  <outline>
    <contour>
      <point x="919" y="-488" type="line"/>
      <point x="871" y="-488"/>
      <point x="817" y="-447"/>
      <point x="801" y="-412" type="qcurve" smooth="yes"/>
      <point x="521" y="214" type="line"/>
      <point x="282" y="692" type="line" smooth="yes"/>
      <point x="221" y="814"/>
      <point x="164" y="854"/>
      <point x="109" y="867" type="qcurve" smooth="yes"/>
      <point x="45" y="880" type="line"/>
      <point x="45" y="974" type="line"/>
      <point x="232" y="1008" type="line"/>
      <point x="306" y="1008"/>
      <point x="365" y="898"/>
      <point x="409" y="802" type="qcurve" smooth="yes"/>
      <point x="615" y="346" type="line"/>
      <point x="933" y="-302" type="line" smooth="yes"/>
      <point x="948" y="-333"/>
      <point x="980" y="-357"/>
      <point x="1009" y="-362" type="qcurve"/>
      <point x="1090" y="-362" type="line"/>
      <point x="1090" y="-446" type="line"/>
    </contour>
    <contour>
      <point x="89" y="-480" type="line"/>
      <point x="54" y="-453" type="line"/>
      <point x="348" y="40" type="line"/>
      <point x="510" y="339" type="line"/>
      <point x="570" y="213" type="line"/>
      <point x="458" y="-15" type="line"/>
      <point x="250" y="-460" type="line"/>
    </contour>
    <contour>
      <point x="611" y="254" type="line"/>
      <point x="551" y="380" type="line"/>
      <point x="625" y="535" type="line"/>
      <point x="833" y="980" type="line"/>
      <point x="994" y="1000" type="line"/>
      <point x="1029" y="973" type="line"/>
      <point x="735" y="480" type="line"/>
    </contour>
  </outline>
</glyph>
<glyph name="Sha" format="2">
  <advance width="2190"/>
  <unicode hex="0428"/>
  <outline>
    <contour>
      <point x="1151" y="94" type="line"/>
      <point x="1191" y="66" type="line"/>
      <point x="1721" y="66" type="line"/>
      <point x="1761" y="94" type="line"/>
      <point x="1763" y="746" type="line"/>
      <point x="1761" y="1352" type="line"/>
      <point x="1553" y="1386" type="line"/>
      <point x="1553" y="1500" type="line"/>
      <point x="2083" y="1500" type="line"/>
      <point x="2083" y="1386" type="line"/>
      <point x="1875" y="1352" type="line"/>
      <point x="1873" y="746" type="line"/>
      <point x="1875" y="135" type="line"/>
      <point x="2083" y="100" type="line"/>
      <point x="2083" y="0" type="line"/>
      <point x="107" y="0" type="line"/>
      <point x="107" y="100" type="line"/>
      <point x="315" y="135" type="line"/>
      <point x="317" y="746" type="line"/>
      <point x="315" y="1352" type="line"/>
      <point x="107" y="1386" type="line"/>
      <point x="107" y="1500" type="line"/>
      <point x="636" y="1500" type="line"/>
      <point x="636" y="1386" type="line"/>
      <point x="428" y="1352" type="line"/>
      <point x="426" y="746" type="line"/>
      <point x="428" y="94" type="line"/>
      <point x="468" y="66" type="line"/>
      <point x="998" y="66" type="line"/>
      <point x="1038" y="94" type="line"/>
      <point x="1040" y="754" type="line"/>
      <point x="1038" y="1349" type="line"/>
      <point x="820" y="1382" type="line"/>
      <point x="820" y="1500" type="line"/>
      <point x="1369" y="1500" type="line"/>
      <point x="1369" y="1382" type="line"/>
      <point x="1151" y="1349" type="line"/>
      <point x="1149" y="754" type="line"/>
    </contour>
  </outline>
</glyph>
<glyph name="Soft" format="2">
  <advance width="1196"/>
  <unicode hex="042C"/>
  <outline>
    <contour>
      <point x="436" y="832" type="line"/>
      <point x="427" y="816" type="line"/>
      <point x="428" y="91" type="line"/>
      <point x="462" y="66" type="line"/>
      <point x="648" y="66" type="line" smooth="yes"/>
      <point x="819" y="66"/>
      <point x="1000" y="287"/>
      <point x="1000" y="477" type="qcurve" smooth="yes"/>
      <point x="1000" y="652"/>
      <point x="810" y="832"/>
      <point x="650" y="832" type="qcurve" smooth="yes"/>
    </contour>
    <contour>
      <point x="426" y="915" type="line"/>
      <point x="435" y="901" type="line"/>
      <point x="685" y="901" type="line" smooth="yes"/>
      <point x="898" y="901"/>
      <point x="1121" y="685"/>
      <point x="1121" y="473" type="qcurve" smooth="yes"/>
      <point x="1121" y="267"/>
      <point x="885" y="0"/>
      <point x="671" y="0" type="qcurve" smooth="yes"/>
      <point x="107" y="0" type="line"/>
      <point x="107" y="100" type="line"/>
      <point x="315" y="135" type="line"/>
      <point x="317" y="736" type="line"/>
      <point x="315" y="1352" type="line"/>
      <point x="107" y="1386" type="line"/>
      <point x="107" y="1500" type="line"/>
      <point x="635" y="1500" type="line"/>
      <point x="635" y="1386" type="line"/>
      <point x="427" y="1352" type="line"/>
    </contour>
  </outline>
</glyph>
<glyph name="zhe" format="2">
  <advance width="1716"/>
  <unicode hex="0436"/>
  <guideline x="241" y="553" angle="90.0" identifier="8KgqZm3A67"/>
  <anchor x="858" y="0" name="bottom"/>
  <anchor x="858" y="1000" name="top"/>
  <outline>
    <contour>
      <point x="1070" y="490" type="line"/>
      <point x="1184" y="593" type="line"/>
      <point x="1553" y="115" type="line"/>
      <point x="1671" y="80" type="line"/>
      <point x="1671" y="0" type="line"/>
      <point x="1372" y="0" type="line"/>
      <point x="1360" y="79" type="line"/>
      <point x="1369" y="111" type="line"/>
    </contour>
    <contour>
      <point x="858" y="567" type="line"/>
      <point x="1087" y="564" type="line"/>
      <point x="1353" y="880" type="line"/>
      <point x="1216" y="910" type="line"/>
      <point x="1216" y="1000" type="line"/>
      <point x="1642" y="1000" type="line"/>
      <point x="1642" y="910" type="line"/>
      <point x="1494" y="875" type="line"/>
      <point x="1111" y="464" type="line"/>
      <point x="858" y="462" type="line"/>
    </contour>
    <contour>
      <point x="640" y="483" type="line"/>
      <point x="347" y="111" type="line"/>
      <point x="356" y="79" type="line"/>
      <point x="344" y="0" type="line"/>
      <point x="45" y="0" type="line"/>
      <point x="45" y="80" type="line"/>
      <point x="174" y="115" type="line"/>
      <point x="537" y="586" type="line"/>
    </contour>
    <contour>
      <point x="858" y="567" type="line"/>
      <point x="858" y="462" type="line"/>
      <point x="595" y="464" type="line"/>
      <point x="212" y="875" type="line"/>
      <point x="64" y="910" type="line"/>
      <point x="64" y="1000" type="line"/>
      <point x="500" y="1000" type="line"/>
      <point x="500" y="910" type="line"/>
      <point x="363" y="880" type="line"/>
      <point x="629" y="564" type="line"/>
    </contour>
    <contour>
      <point x="941" y="500" type="line"/>
      <point x="943" y="115" type="line"/>
      <point x="1087" y="80" type="line"/>
      <point x="1087" y="0" type="line"/>
      <point x="631" y="0" type="line"/>
      <point x="631" y="80" type="line"/>
      <point x="773" y="115" type="line"/>
      <point x="775" y="500" type="line"/>
      <point x="773" y="885" type="line"/>
      <point x="630" y="920" type="line"/>
      <point x="630" y="1000" type="line"/>
      <point x="1086" y="1000" type="line"/>
      <point x="1086" y="920" type="line"/>
      <point x="943" y="885" type="line"/>
    </contour>
  </outline>
</glyph>
<glyph name="ze" format="2">
  <advance width="1024"/>
  <unicode hex="0437"/>
  <anchor x="535" y="0" name="bottom"/>
  <outline>
    <contour>
      <point x="544" y="-23" type="qcurve" smooth="yes"/>
      <point x="429" y="-23"/>
      <point x="294" y="22"/>
      <point x="263" y="43" type="qcurve"/>
      <point x="240" y="-7" type="line"/>
      <point x="145" y="-7" type="line"/>
      <point x="145" y="335" type="line"/>
      <point x="242" y="335" type="line"/>
      <point x="259" y="274" type="line" smooth="yes"/>
      <point x="283" y="188"/>
      <point x="395" y="88"/>
      <point x="525" y="88" type="qcurve" smooth="yes"/>
      <point x="638" y="88"/>
      <point x="765" y="188"/>
      <point x="765" y="286" type="qcurve" smooth="yes"/>
      <point x="765" y="364"/>
      <point x="660" y="454"/>
      <point x="562" y="454" type="qcurve" smooth="yes"/>
      <point x="373" y="454" type="line"/>
      <point x="373" y="554" type="line"/>
      <point x="521" y="554" type="line" smooth="yes"/>
      <point x="628" y="554"/>
      <point x="724" y="651"/>
      <point x="724" y="731" type="qcurve" smooth="yes"/>
      <point x="724" y="819"/>
      <point x="633" y="911"/>
      <point x="536" y="911" type="qcurve" smooth="yes"/>
      <point x="425" y="911"/>
      <point x="304" y="810"/>
      <point x="280" y="725" type="qcurve" smooth="yes"/>
      <point x="263" y="664" type="line"/>
      <point x="166" y="664" type="line"/>
      <point x="166" y="1006" type="line"/>
      <point x="261" y="1006" type="line"/>
      <point x="284" y="956" type="line"/>
      <point x="320" y="983"/>
      <point x="449" y="1022"/>
      <point x="547" y="1022" type="qcurve" smooth="yes"/>
      <point x="715" y="1022"/>
      <point x="889" y="882"/>
      <point x="889" y="763" type="qcurve" smooth="yes"/>
      <point x="889" y="673"/>
      <point x="791" y="547"/>
      <point x="702" y="525" type="qcurve"/>
      <point x="702" y="521" type="line"/>
      <point x="816" y="505"/>
      <point x="934" y="379"/>
      <point x="934" y="276" type="qcurve" smooth="yes"/>
      <point x="934" y="138"/>
      <point x="725" y="-23"/>
    </contour>
  </outline>
</glyph>
<glyph name="el" format="2">
  <advance width="1257"/>
  <unicode hex="043B"/>
  <guideline x="302" y="625" angle="90.0" identifier="jHuxcyi1x5"/>
  <guideline x="953" y="554" angle="90.0" identifier="b1mHk7wgTR"/>
  <guideline x="627" y="553" angle="90.0" identifier="m4aYe0x4PZ"/>
  <outline>
    <contour>
      <point x="361" y="885" type="line"/>
      <point x="223" y="920" type="line"/>
      <point x="223" y="1000" type="line"/>
      <point x="1152" y="1000" type="line"/>
      <point x="1152" y="920" type="line"/>
      <point x="1004" y="885" type="line"/>
      <point x="1002" y="500" type="line"/>
      <point x="1004" y="115" type="line"/>
      <point x="1152" y="80" type="line"/>
      <point x="1152" y="0" type="line"/>
      <point x="676" y="0" type="line"/>
      <point x="676" y="80" type="line"/>
      <point x="834" y="115" type="line"/>
      <point x="836" y="500" type="line"/>
      <point x="834" y="895" type="line"/>
      <point x="483" y="895" type="line"/>
      <point x="441" y="439" type="line" smooth="yes"/>
      <point x="419" y="203"/>
      <point x="294" y="-17"/>
      <point x="155" y="-17" type="qcurve" smooth="yes"/>
      <point x="134" y="-17"/>
      <point x="101" y="-11"/>
      <point x="75" y="-2" type="qcurve"/>
      <point x="75" y="163" type="line"/>
      <point x="97" y="156"/>
      <point x="133" y="151"/>
      <point x="152" y="151" type="qcurve" smooth="yes"/>
      <point x="235" y="151"/>
      <point x="308" y="319"/>
      <point x="321" y="454" type="qcurve" smooth="yes"/>
    </contour>
  </outline>
</glyph>
<glyph name="em" format="2">
  <advance width="1695"/>
  <unicode hex="043C"/>
  <guideline x="1285" y="878" angle="0.0" identifier="6e2z48lNZ1"/>
  <outline>
    <contour>
      <point x="485" y="1000" type="line"/>
      <point x="684" y="537" type="line"/>
      <point x="846" y="180" type="line"/>
      <point x="1009" y="538" type="line"/>
      <point x="1210" y="1000" type="line"/>
      <point x="1590" y="1000" type="line"/>
      <point x="1590" y="920" type="line"/>
      <point x="1442" y="885" type="line"/>
      <point x="1440" y="501" type="line"/>
      <point x="1442" y="115" type="line"/>
      <point x="1590" y="80" type="line"/>
      <point x="1590" y="0" type="line"/>
      <point x="1134" y="0" type="line"/>
      <point x="1134" y="80" type="line"/>
      <point x="1272" y="115" type="line"/>
      <point x="1274" y="501" type="line"/>
      <point x="1272" y="859" type="line"/>
      <point x="1105" y="493" type="line"/>
      <point x="889" y="-5" type="line"/>
      <point x="751" y="-5" type="line"/>
      <point x="544" y="476" type="line"/>
      <point x="371" y="859" type="line"/>
      <point x="368" y="501" type="line"/>
      <point x="371" y="115" type="line"/>
      <point x="509" y="80" type="line"/>
      <point x="509" y="0" type="line"/>
      <point x="105" y="0" type="line"/>
      <point x="105" y="80" type="line"/>
      <point x="253" y="115" type="line"/>
      <point x="256" y="501" type="line"/>
      <point x="253" y="885" type="line"/>
      <point x="105" y="920" type="line"/>
      <point x="105" y="1000" type="line"/>
    </contour>
  </outline>
</glyph>
<glyph name="pe" format="2">
  <advance width="1316"/>
  <unicode hex="043F"/>
  <guideline x="302" y="625" angle="90.0" identifier="jHuxcyi1x5"/>
  <guideline x="953" y="554" angle="90.0" identifier="b1mHk7wgTR"/>
  <guideline x="627" y="553" angle="90.0" identifier="m4aYe0x4PZ"/>
  <outline>
    <contour>
      <point x="255" y="500" type="line"/>
      <point x="253" y="885" type="line"/>
      <point x="105" y="920" type="line"/>
      <point x="105" y="1000" type="line"/>
      <point x="1211" y="1000" type="line"/>
      <point x="1211" y="920" type="line"/>
      <point x="1063" y="885" type="line"/>
      <point x="1061" y="500" type="line"/>
      <point x="1063" y="115" type="line"/>
      <point x="1211" y="80" type="line"/>
      <point x="1211" y="0" type="line"/>
      <point x="755" y="0" type="line"/>
      <point x="755" y="80" type="line"/>
      <point x="893" y="115" type="line"/>
      <point x="895" y="500" type="line"/>
      <point x="893" y="895" type="line"/>
      <point x="423" y="895" type="line"/>
      <point x="421" y="500" type="line"/>
      <point x="423" y="115" type="line"/>
      <point x="561" y="80" type="line"/>
      <point x="561" y="0" type="line"/>
      <point x="105" y="0" type="line"/>
      <point x="105" y="80" type="line"/>
      <point x="253" y="115" type="line"/>
    </contour>
  </outline>
</glyph>
<glyph name="te" format="2">
  <advance width="1096"/>
  <unicode hex="0442"/>
  <guideline x="302" y="625" angle="90.0" identifier="0glbwjr6f1"/>
  <guideline x="953" y="554" angle="90.0" identifier="41A0uQDzZV"/>
  <guideline x="627" y="553" angle="90.0" identifier="rA3XBl1QkZ"/>
  <outline>
    <contour>
      <point x="781" y="80" type="line"/>
      <point x="781" y="0" type="line"/>
      <point x="315" y="0" type="line"/>
      <point x="315" y="80" type="line"/>
      <point x="463" y="115" type="line"/>
      <point x="465" y="500" type="line"/>
      <point x="463" y="895" type="line"/>
      <point x="231" y="895" type="line"/>
      <point x="185" y="662" type="line"/>
      <point x="85" y="662" type="line"/>
      <point x="85" y="1000" type="line"/>
      <point x="1011" y="1000" type="line"/>
      <point x="1011" y="662" type="line"/>
      <point x="911" y="662" type="line"/>
      <point x="865" y="895" type="line"/>
      <point x="633" y="895" type="line"/>
      <point x="631" y="500" type="line"/>
      <point x="633" y="115" type="line"/>
    </contour>
  </outline>
</glyph>
<glyph name="tse" format="2">
  <advance width="1329"/>
  <unicode hex="0446"/>
  <guideline x="302" y="625" angle="90.0" identifier="jHuxcyi1x5"/>
  <guideline x="953" y="554" angle="90.0" identifier="b1mHk7wgTR"/>
  <guideline x="627" y="553" angle="90.0" identifier="m4aYe0x4PZ"/>
  <outline>
    <contour>
      <point x="255" y="500" type="line"/>
      <point x="253" y="885" type="line"/>
      <point x="105" y="920" type="line"/>
      <point x="105" y="1000" type="line"/>
      <point x="561" y="1000" type="line"/>
      <point x="561" y="920" type="line"/>
      <point x="423" y="885" type="line"/>
      <point x="421" y="500" type="line"/>
      <point x="423" y="105" type="line"/>
      <point x="893" y="105" type="line"/>
      <point x="895" y="500" type="line"/>
      <point x="893" y="885" type="line"/>
      <point x="755" y="920" type="line"/>
      <point x="755" y="1000" type="line"/>
      <point x="1211" y="1000" type="line"/>
      <point x="1211" y="920" type="line"/>
      <point x="1063" y="885" type="line"/>
      <point x="1061" y="500" type="line"/>
      <point x="1064" y="105" type="line"/>
      <point x="1224" y="105" type="line"/>
      <point x="1234" y="-318" type="line"/>
      <point x="1142" y="-318" type="line"/>
      <point x="1053" y="0" type="line"/>
      <point x="105" y="0" type="line"/>
      <point x="105" y="80" type="line"/>
      <point x="253" y="115" type="line"/>
    </contour>
  </outline>
</glyph>
<glyph name="hard" format="2">
  <advance width="1303"/>
  <unicode hex="044A"/>
  <guideline x="302" y="625" angle="90.0" identifier="0glbwjr6f1"/>
  <guideline x="953" y="554" angle="90.0" identifier="41A0uQDzZV"/>
  <guideline x="627" y="553" angle="90.0" identifier="rA3XBl1QkZ"/>
  <guideline x="302" y="625" angle="90.0" identifier="9bXjTXCOsd"/>
  <guideline x="953" y="554" angle="90.0" identifier="70YHiu6Ygv"/>
  <guideline x="627" y="553" angle="90.0" identifier="lr0dX83lJL"/>
  <outline>
    <contour>
      <point x="766" y="1000" type="line"/>
      <point x="766" y="920" type="line"/>
      <point x="618" y="885" type="line"/>
      <point x="616" y="500" type="line"/>
      <point x="618" y="105" type="line"/>
      <point x="806" y="105" type="line" smooth="yes"/>
      <point x="931" y="105"/>
      <point x="1032" y="224"/>
      <point x="1032" y="314" type="qcurve" smooth="yes"/>
      <point x="1032" y="402"/>
      <point x="931" y="516"/>
      <point x="806" y="516" type="qcurve" smooth="yes"/>
      <point x="533" y="516" type="line"/>
      <point x="533" y="621" type="line"/>
      <point x="806" y="621" type="line" smooth="yes"/>
      <point x="1004" y="621"/>
      <point x="1218" y="455"/>
      <point x="1218" y="314" type="qcurve" smooth="yes"/>
      <point x="1218" y="172"/>
      <point x="1004" y="0"/>
      <point x="806" y="0" type="qcurve" smooth="yes"/>
      <point x="300" y="0" type="line"/>
      <point x="300" y="80" type="line"/>
      <point x="448" y="115" type="line"/>
      <point x="450" y="500" type="line"/>
      <point x="448" y="895" type="line"/>
      <point x="231" y="895" type="line"/>
      <point x="185" y="662" type="line"/>
      <point x="85" y="662" type="line"/>
      <point x="85" y="1000" type="line"/>
    </contour>
  </outline>
</glyph>
<glyph name="zhedescender" format="2">
  <advance width="1716"/>
  <unicode hex="0497"/>
  <guideline x="241" y="553" angle="90.0" identifier="8KgqZm3A67"/>
  <outline>
    <contour>
      <point x="1076" y="483" type="line"/>
      <point x="1190" y="586" type="line"/>
      <point x="1561" y="105" type="line"/>
      <point x="1561" y="0" type="line"/>
      <point x="1372" y="0" type="line"/>
      <point x="1360" y="79" type="line"/>
      <point x="1369" y="111" type="line"/>
    </contour>
    <contour>
      <point x="858" y="567" type="line"/>
      <point x="1087" y="564" type="line"/>
      <point x="1353" y="880" type="line"/>
      <point x="1216" y="910" type="line"/>
      <point x="1216" y="1000" type="line"/>
      <point x="1642" y="1000" type="line"/>
      <point x="1642" y="910" type="line"/>
      <point x="1494" y="875" type="line"/>
      <point x="1111" y="464" type="line"/>
      <point x="858" y="462" type="line"/>
    </contour>
    <contour>
      <point x="640" y="483" type="line"/>
      <point x="347" y="111" type="line"/>
      <point x="356" y="79" type="line"/>
      <point x="344" y="0" type="line"/>
      <point x="45" y="0" type="line"/>
      <point x="45" y="80" type="line"/>
      <point x="174" y="115" type="line"/>
      <point x="537" y="586" type="line"/>
    </contour>
    <contour>
      <point x="858" y="567" type="line"/>
      <point x="858" y="462" type="line"/>
      <point x="595" y="464" type="line"/>
      <point x="212" y="875" type="line"/>
      <point x="64" y="910" type="line"/>
      <point x="64" y="1000" type="line"/>
      <point x="500" y="1000" type="line"/>
      <point x="500" y="910" type="line"/>
      <point x="363" y="880" type="line"/>
      <point x="629" y="564" type="line"/>
    </contour>
    <contour>
      <point x="941" y="500" type="line"/>
      <point x="943" y="115" type="line"/>
      <point x="1087" y="80" type="line"/>
      <point x="1087" y="0" type="line"/>
      <point x="631" y="0" type="line"/>
      <point x="631" y="80" type="line"/>
      <point x="773" y="115" type="line"/>
      <point x="775" y="500" type="line"/>
      <point x="773" y="885" type="line"/>
      <point x="630" y="920" type="line"/>
      <point x="630" y="1000" type="line"/>
      <point x="1086" y="1000" type="line"/>
      <point x="1086" y="920" type="line"/>
      <point x="943" y="885" type="line"/>
    </contour>
    <contour>
      <point x="1480" y="105" type="line"/>
      <point x="1681" y="105" type="line"/>
      <point x="1691" y="-318" type="line"/>
      <point x="1599" y="-318" type="line"/>
      <point x="1510" y="0" type="line"/>
      <point x="1480" y="0" type="line"/>
    </contour>
  </outline>
</glyph>
<glyph name="Endescender" format="2">
  <advance width="1656"/>
  <unicode hex="04A2"/>
  <outline>
    <contour>
      <point x="1230" y="762" type="line"/>
      <point x="1228" y="1352" type="line"/>
      <point x="1020" y="1386" type="line"/>
      <point x="1020" y="1500" type="line"/>
      <point x="1549" y="1500" type="line"/>
      <point x="1549" y="1386" type="line"/>
      <point x="1341" y="1352" type="line"/>
      <point x="1339" y="762" type="line"/>
      <point x="1341" y="108" type="line"/>
      <point x="1549" y="108" type="line"/>
      <point x="1559" y="-338" type="line"/>
      <point x="1437" y="-338" type="line"/>
      <point x="1368" y="0" type="line"/>
      <point x="1020" y="0" type="line"/>
      <point x="1020" y="100" type="line"/>
      <point x="1228" y="135" type="line"/>
    </contour>
    <contour>
      <point x="107" y="0" type="line"/>
      <point x="107" y="100" type="line"/>
      <point x="315" y="135" type="line"/>
      <point x="317" y="762" type="line"/>
      <point x="315" y="1352" type="line"/>
      <point x="107" y="1386" type="line"/>
      <point x="107" y="1500" type="line"/>
      <point x="636" y="1500" type="line"/>
      <point x="636" y="1386" type="line"/>
      <point x="428" y="1352" type="line"/>
      <point x="426" y="762" type="line"/>
      <point x="428" y="135" type="line"/>
      <point x="636" y="100" type="line"/>
      <point x="636" y="0" type="line"/>
    </contour>
    <contour>
      <point x="371" y="744" type="line"/>
      <point x="371" y="826" type="line"/>
      <point x="828" y="819" type="line"/>
      <point x="1284" y="826" type="line"/>
      <point x="1284" y="744" type="line"/>
      <point x="828" y="744" type="line"/>
    </contour>
  </outline>
</glyph>
<glyph name="Hastroke-cy" format="2">
  <advance width="1339"/>
  <unicode hex="04FE"/>
  <outline>
    <contour>
      <point x="282" y="735" type="line"/>
      <point x="282" y="881" type="line"/>
      <point x="679" y="878" type="line"/>
      <point x="1063" y="881" type="line"/>
      <point x="1063" y="735" type="line"/>
      <point x="672" y="738" type="line"/>
    </contour>
    <contour>
      <point x="5" y="0" type="line"/>
      <point x="5" y="100" type="line"/>
      <point x="173" y="135" type="line"/>
      <point x="607" y="810" type="line"/>
      <point x="233" y="1355" type="line"/>
      <point x="75" y="1386" type="line"/>
      <point x="75" y="1500" type="line"/>
      <point x="532" y="1500" type="line"/>
      <point x="532" y="1386" type="line"/>
      <point x="359" y="1353" type="line"/>
      <point x="618" y="974" type="line"/>
      <point x="684" y="878" type="line"/>
      <point x="694" y="878" type="line"/>
      <point x="755" y="975" type="line"/>
      <point x="1004" y="1360" type="line"/>
      <point x="827" y="1386" type="line"/>
      <point x="827" y="1500" type="line"/>
      <point x="1274" y="1500" type="line"/>
      <point x="1274" y="1386" type="line"/>
      <point x="1096" y="1355" type="line"/>
      <point x="739" y="797" type="line"/>
      <point x="1186" y="135" type="line"/>
      <point x="1354" y="100" type="line"/>
      <point x="1354" y="0" type="line"/>
      <point x="887" y="0" type="line"/>
      <point x="887" y="100" type="line"/>
      <point x="1060" y="135" type="line"/>
      <point x="721" y="644" type="line"/>
      <point x="664" y="732" type="line"/>
      <point x="654" y="732" type="line"/>
      <point x="597" y="643" type="line"/>
      <point x="264" y="130" type="line"/>
      <point x="441" y="100" type="line"/>
      <point x="441" y="0" type="line"/>
    </contour>
  </outline>
</glyph>
<glyph name="dagger" format="2">
  <advance width="1018"/>
  <unicode hex="2020"/>
  <outline>
    <contour>
      <point x="494" y="-540" type="line"/>
      <point x="416" y="-58" type="line"/>
      <point x="440" y="550" type="line"/>
      <point x="438" y="830" type="line"/>
      <point x="406" y="1438" type="line"/>
      <point x="456" y="1503" type="line"/>
      <point x="536" y="1506" type="line"/>
      <point x="582" y="1438" type="line"/>
      <point x="558" y="830" type="line"/>
      <point x="560" y="550" type="line"/>
      <point x="582" y="-58" type="line"/>
      <point x="514" y="-540" type="line"/>
    </contour>
    <contour>
      <point x="97" y="852" type="line"/>
      <point x="97" y="1000" type="line"/>
      <point x="500" y="992" type="line"/>
      <point x="921" y="1000" type="line"/>
      <point x="921" y="852" type="line"/>
      <point x="500" y="856" type="line"/>
    </contour>
  </outline>
</glyph>
<glyph name="bullet" format="2">
  <advance width="834"/>
  <unicode hex="2022"/>
  <outline>
    <contour>
      <point x="129" y="773" type="qcurve" smooth="yes"/>
      <point x="129" y="889"/>
      <point x="291" y="1061"/>
      <point x="417" y="1061" type="qcurve" smooth="yes"/>
      <point x="543" y="1061"/>
      <point x="705" y="889"/>
      <point x="705" y="773" type="qcurve" smooth="yes"/>
      <point x="705" y="659"/>
      <point x="543" y="487"/>
      <point x="417" y="487" type="qcurve" smooth="yes"/>
      <point x="291" y="487"/>
      <point x="129" y="659"/>
    </contour>
  </outline>
</glyph>
<glyph name="guilsinglright" format="2">
  <advance width="897"/>
  <unicode hex="203A"/>
  <outline>
    <contour>
      <point x="848" y="588" type="line"/>
      <point x="764" y="540"/>
      <point x="267" y="233"/>
      <point x="195" y="188" type="qcurve" smooth="yes"/>
      <point x="125" y="144"/>
      <point x="43" y="241"/>
      <point x="109" y="287" type="qcurve" smooth="yes"/>
      <point x="200" y="351"/>
      <point x="564" y="583"/>
      <point x="594" y="599" type="qcurve"/>
      <point x="564" y="621"/>
      <point x="198" y="865"/>
      <point x="105" y="929" type="qcurve" smooth="yes"/>
      <point x="40" y="973"/>
      <point x="103" y="1076"/>
      <point x="176" y="1038" type="qcurve" smooth="yes"/>
      <point x="242" y="1004"/>
      <point x="773" y="676"/>
      <point x="848" y="628" type="qcurve"/>
    </contour>
  </outline>
</glyph>
<glyph name="colonsign" format="2">
  <advance width="1362"/>
  <unicode hex="20A1"/>
  <outline>
    <contour>
      <point x="139" y="691" type="qcurve" smooth="yes"/>
      <point x="139" y="993"/>
      <point x="495" y="1448"/>
      <point x="819" y="1448" type="qcurve" smooth="yes"/>
      <point x="1028" y="1448"/>
      <point x="1300" y="1209"/>
      <point x="1307" y="993" type="qcurve"/>
      <point x="1171" y="993" type="line"/>
      <point x="1162" y="1150"/>
      <point x="1006" y="1331"/>
      <point x="806" y="1331" type="qcurve" smooth="yes"/>
      <point x="590" y="1331"/>
      <point x="331" y="1009"/>
      <point x="333" y="728" type="qcurve" smooth="yes"/>
      <point x="335" y="457"/>
      <point x="604" y="169"/>
      <point x="807" y="169" type="qcurve" smooth="yes"/>
      <point x="953" y="169"/>
      <point x="1180" y="268"/>
      <point x="1240" y="353" type="qcurve"/>
      <point x="1327" y="277" type="line"/>
      <point x="1253" y="169"/>
      <point x="971" y="18"/>
      <point x="812" y="18" type="qcurve" smooth="yes"/>
      <point x="480" y="18"/>
      <point x="139" y="426"/>
    </contour>
    <contour>
      <point x="596" y="-149" type="line"/>
      <point x="650" y="87" type="line"/>
      <point x="661" y="82" type="line"/>
      <point x="832" y="831" type="line"/>
      <point x="944" y="762" type="line"/>
      <point x="782" y="55" type="line"/>
      <point x="795" y="50" type="line"/>
      <point x="753" y="-137" type="line"/>
    </contour>
    <contour>
      <point x="987" y="1567" type="line"/>
      <point x="1142" y="1567" type="line"/>
      <point x="1092" y="1346" type="line"/>
      <point x="1080" y="1350" type="line"/>
      <point x="944" y="762" type="line"/>
      <point x="832" y="831" type="line"/>
      <point x="959" y="1378" type="line"/>
      <point x="946" y="1383" type="line"/>
    </contour>
    <contour>
      <point x="318" y="-79" type="line"/>
      <point x="395" y="229" type="line"/>
      <point x="406" y="224" type="line"/>
      <point x="542" y="831" type="line"/>
      <point x="654" y="762" type="line"/>
      <point x="527" y="197" type="line"/>
      <point x="540" y="192" type="line"/>
      <point x="475" y="-67" type="line"/>
    </contour>
    <contour>
      <point x="697" y="1567" type="line"/>
      <point x="852" y="1567" type="line"/>
      <point x="809" y="1382" type="line"/>
      <point x="797" y="1386" type="line"/>
      <point x="654" y="762" type="line"/>
      <point x="542" y="831" type="line"/>
      <point x="668" y="1384" type="line"/>
      <point x="655" y="1389" type="line"/>
    </contour>
  </outline>
</glyph>
<glyph name="franc" format="2">
  <advance width="1110"/>
  <unicode hex="20A3"/>
  <outline>
    <contour>
      <point x="107" y="0" type="line"/>
      <point x="107" y="100" type="line"/>
      <point x="315" y="137" type="line"/>
      <point x="317" y="760" type="line"/>
      <point x="315" y="1352" type="line"/>
      <point x="107" y="1386" type="line"/>
      <point x="107" y="1500" type="line"/>
      <point x="1001" y="1500" type="line"/>
      <point x="1061" y="1150" type="line"/>
      <point x="951" y="1150" type="line"/>
      <point x="856" y="1382" type="line"/>
      <point x="525" y="1382" type="line"/>
      <point x="495" y="1362" type="line"/>
      <point x="493" y="772" type="line"/>
      <point x="495" y="132" type="line"/>
      <point x="723" y="100" type="line"/>
      <point x="723" y="0" type="line"/>
    </contour>
    <contour>
      <point x="405" y="731" type="line"/>
      <point x="405" y="833" type="line"/>
      <point x="800" y="840" type="line"/>
      <point x="835" y="982" type="line"/>
      <point x="945" y="982" type="line"/>
      <point x="945" y="586" type="line"/>
      <point x="835" y="586" type="line"/>
      <point x="800" y="724" type="line"/>
    </contour>
    <contour>
      <point x="81" y="331" type="line"/>
      <point x="51" y="457" type="line"/>
      <point x="815" y="457" type="line"/>
      <point x="785" y="331" type="line"/>
    </contour>
  </outline>
</glyph>
<glyph name="naira" format="2">
  <advance width="1579"/>
  <unicode hex="20A6"/>
  <outline>
    <contour>
      <point x="107" y="0" type="line"/>
      <point x="107" y="100" type="line"/>
      <point x="315" y="135" type="line"/>
      <point x="317" y="754" type="line"/>
      <point x="315" y="1352" type="line"/>
      <point x="107" y="1386" type="line"/>
      <point x="107" y="1500" type="line"/>
      <point x="533" y="1500" type="line"/>
      <point x="883" y="838" type="line"/>
      <point x="1182" y="292" type="line"/>
      <point x="1182" y="754" type="line"/>
      <point x="1175" y="1352" type="line"/>
      <point x="947" y="1386" type="line"/>
      <point x="947" y="1500" type="line"/>
      <point x="1503" y="1500" type="line"/>
      <point x="1503" y="1386" type="line"/>
      <point x="1295" y="1352" type="line"/>
      <point x="1293" y="754" type="line"/>
      <point x="1289" y="0" type="line"/>
      <point x="1159" y="0" type="line"/>
      <point x="755" y="752" type="line"/>
      <point x="435" y="1319" type="line"/>
      <point x="428" y="754" type="line"/>
      <point x="435" y="135" type="line"/>
      <point x="653" y="100" type="line"/>
      <point x="653" y="0" type="line"/>
    </contour>
    <contour>
      <point x="1519" y="539" type="line"/>
      <point x="1227" y="539" type="line"/>
      <point x="1227" y="553" type="line"/>
      <point x="965" y="553" type="line"/>
      <point x="891" y="664" type="line"/>
      <point x="1227" y="664" type="line"/>
      <point x="1227" y="677" type="line"/>
      <point x="1469" y="677" type="line"/>
    </contour>
    <contour>
      <point x="99" y="539" type="line"/>
      <point x="60" y="677" type="line"/>
      <point x="381" y="677" type="line"/>
      <point x="381" y="665" type="line"/>
      <point x="891" y="665" type="line"/>
      <point x="969" y="547" type="line"/>
      <point x="381" y="547" type="line"/>
      <point x="381" y="539" type="line"/>
    </contour>
    <contour>
      <point x="1519" y="891" type="line"/>
      <point x="1227" y="891" type="line"/>
      <point x="1227" y="900" type="line"/>
      <point x="792" y="900" type="line"/>
      <point x="714" y="1018" type="line"/>
      <point x="1227" y="1018" type="line"/>
      <point x="1227" y="1029" type="line"/>
      <point x="1469" y="1029" type="line"/>
    </contour>
    <contour>
      <point x="99" y="891" type="line"/>
      <point x="60" y="1029" type="line"/>
      <point x="381" y="1029" type="line"/>
      <point x="381" y="1012" type="line"/>
      <point x="718" y="1012" type="line"/>
      <point x="792" y="901" type="line"/>
      <point x="381" y="901" type="line"/>
      <point x="381" y="891" type="line"/>
    </contour>
  </outline>
</glyph>
<glyph name="tenge" format="2">
  <advance width="1298"/>
  <unicode hex="20B8"/>
  <outline>
    <contour>
      <point x="77" y="1364" type="line"/>
      <point x="101" y="1500" type="line"/>
      <point x="1189" y="1500" type="line"/>
      <point x="1219" y="1364" type="line"/>
    </contour>
    <contour>
      <point x="75" y="732" type="line"/>
      <point x="75" y="1180" type="line"/>
      <point x="1223" y="1180" type="line"/>
      <point x="1223" y="732" type="line"/>
      <point x="1113" y="732" type="line"/>
      <point x="1078" y="1062" type="line"/>
      <point x="758" y="1062" type="line"/>
      <point x="739" y="1042" type="line"/>
      <point x="737" y="594" type="line"/>
      <point x="739" y="136" type="line"/>
      <point x="957" y="100" type="line"/>
      <point x="957" y="0" type="line"/>
      <point x="341" y="0" type="line"/>
      <point x="341" y="100" type="line"/>
      <point x="559" y="136" type="line"/>
      <point x="561" y="594" type="line"/>
      <point x="559" y="1042" type="line"/>
      <point x="550" y="1062" type="line"/>
      <point x="220" y="1062" type="line"/>
      <point x="185" y="732" type="line"/>
    </contour>
  </outline>
</glyph>
<glyph name="ruble" format="2">
  <advance width="1229"/>
  <unicode hex="20BD"/>
  <outline>
    <contour>
      <point x="107" y="0" type="line"/>
      <point x="107" y="100" type="line"/>
      <point x="295" y="132" type="line"/>
      <point x="297" y="754" type="line"/>
      <point x="295" y="1352" type="line"/>
      <point x="107" y="1386" type="line"/>
      <point x="107" y="1500" type="line"/>
      <point x="694" y="1500" type="line" smooth="yes"/>
      <point x="933" y="1500"/>
      <point x="1193" y="1284"/>
      <point x="1193" y="1088" type="qcurve" smooth="yes"/>
      <point x="1193" y="886"/>
      <point x="920" y="598"/>
      <point x="653" y="598" type="qcurve" smooth="yes"/>
      <point x="517" y="598"/>
      <point x="240" y="643"/>
      <point x="122" y="673" type="qcurve"/>
      <point x="131" y="789" type="line"/>
      <point x="241" y="756"/>
      <point x="483" y="720"/>
      <point x="635" y="720" type="qcurve" smooth="yes"/>
      <point x="820" y="720"/>
      <point x="1007" y="910"/>
      <point x="1007" y="1070" type="qcurve" smooth="yes"/>
      <point x="1007" y="1227"/>
      <point x="818" y="1382"/>
      <point x="658" y="1382" type="qcurve" smooth="yes"/>
      <point x="510" y="1382" type="line"/>
      <point x="476" y="1360" type="line"/>
      <point x="473" y="764" type="line"/>
      <point x="475" y="127" type="line"/>
      <point x="683" y="100" type="line"/>
      <point x="683" y="0" type="line"/>
    </contour>
    <contour>
      <point x="111" y="349" type="line"/>
      <point x="91" y="445" type="line"/>
      <point x="925" y="445" type="line"/>
      <point x="894" y="309" type="line"/>
    </contour>
  </outline>
</glyph>
<glyph name="numero" format="2">
  <advance width="2426"/>
  <unicode hex="2116"/>
  <outline>
    <contour>
      <point x="107" y="0" type="line"/>
      <point x="107" y="100" type="line"/>
      <point x="315" y="135" type="line"/>
      <point x="327" y="754" type="line"/>
      <point x="336" y="1363" type="line"/>
      <point x="167" y="1386" type="line"/>
      <point x="167" y="1500" type="line"/>
      <point x="533" y="1500" type="line"/>
      <point x="885" y="838" type="line"/>
      <point x="1147" y="361" type="line"/>
      <point x="1147" y="754" type="line"/>
      <point x="1135" y="1352" type="line"/>
      <point x="917" y="1386" type="line"/>
      <point x="917" y="1500" type="line"/>
      <point x="1443" y="1500" type="line"/>
      <point x="1443" y="1386" type="line"/>
      <point x="1255" y="1352" type="line"/>
      <point x="1263" y="754" type="line"/>
      <point x="1287" y="0" type="line"/>
      <point x="1157" y="0" type="line"/>
      <point x="743" y="744" type="line"/>
      <point x="449" y="1274" type="line"/>
      <point x="443" y="754" type="line"/>
      <point x="435" y="135" type="line"/>
      <point x="623" y="100" type="line"/>
      <point x="623" y="0" type="line"/>
    </contour>
    <contour>
      <point x="1600" y="1008" type="qcurve" smooth="yes"/>
      <point x="1599" y="1202"/>
      <point x="1736" y="1418"/>
      <point x="1864" y="1418" type="qcurve" smooth="yes"/>
      <point x="1982" y="1418"/>
      <point x="2127" y="1180"/>
      <point x="2127" y="991" type="qcurve" smooth="yes"/>
      <point x="2127" y="789"/>
      <point x="1991" y="548"/>
      <point x="1863" y="548" type="qcurve" smooth="yes"/>
      <point x="1745" y="548"/>
      <point x="1601" y="813"/>
    </contour>
    <contour>
      <point x="1414" y="986" type="qcurve" smooth="yes"/>
      <point x="1414" y="768"/>
      <point x="1671" y="451"/>
      <point x="1871" y="451" type="qcurve" smooth="yes"/>
      <point x="2068" y="451"/>
      <point x="2320" y="790"/>
      <point x="2320" y="992" type="qcurve" smooth="yes"/>
      <point x="2320" y="1209"/>
      <point x="2065" y="1522"/>
      <point x="1865" y="1522" type="qcurve" smooth="yes"/>
      <point x="1668" y="1522"/>
      <point x="1414" y="1190"/>
    </contour>
    <contour>
      <point x="1572" y="281" type="qcurve" smooth="yes"/>
      <point x="1572" y="315"/>
      <point x="1738" y="364"/>
      <point x="1868" y="364" type="qcurve" smooth="yes"/>
      <point x="1998" y="364"/>
      <point x="2164" y="315"/>
      <point x="2164" y="281" type="qcurve" smooth="yes"/>
      <point x="2164" y="248"/>
      <point x="1998" y="198"/>
      <point x="1868" y="198" type="qcurve" smooth="yes"/>
      <point x="1738" y="198"/>
      <point x="1572" y="248"/>
    </contour>
  </outline>
</glyph>
<glyph name="divisionslash" format="2">
  <advance width="706"/>
  <unicode hex="2215"/>
  <outline>
    <contour>
      <point x="-37" y="-118" type="line"/>
      <point x="579" y="1555" type="line"/>
      <point x="720" y="1512" type="line"/>
      <point x="104" y="-161" type="line"/>
    </contour>
  </outline>
</glyph>
<glyph name="notequal" format="2">
  <advance width="1074"/>
  <unicode hex="2260"/>
  <outline>
    <contour>
      <point x="125" y="339" type="line"/>
      <point x="125" y="501" type="line"/>
      <point x="535" y="497" type="line"/>
      <point x="949" y="501" type="line"/>
      <point x="949" y="339" type="line"/>
      <point x="535" y="343" type="line"/>
    </contour>
    <contour>
      <point x="125" y="741" type="line"/>
      <point x="125" y="903" type="line"/>
      <point x="535" y="899" type="line"/>
      <point x="949" y="903" type="line"/>
      <point x="949" y="741" type="line"/>
      <point x="535" y="745" type="line"/>
    </contour>
    <contour>
      <point x="261" y="96" type="line"/>
      <point x="670" y="1211" type="line"/>
      <point x="811" y="1168" type="line"/>
      <point x="402" y="53" type="line"/>
    </contour>
  </outline>
</glyph>
<glyph name="caroncomb.alt" format="2">
  <advance width="306"/>
  <anchor x="-66" y="1000" name="_topright"/>
  <outline>
    <contour>
      <point x="118" y="1028" type="line"/>
      <point x="196" y="1380" type="line" smooth="yes"/>
      <point x="211" y="1450"/>
      <point x="266" y="1520"/>
      <point x="306" y="1520" type="qcurve" smooth="yes"/>
      <point x="346" y="1520"/>
      <point x="396" y="1480"/>
      <point x="396" y="1440" type="qcurve" smooth="yes"/>
      <point x="396" y="1400"/>
      <point x="374" y="1334"/>
      <point x="352" y="1290" type="qcurve" smooth="yes"/>
      <point x="206" y="1000" type="line"/>
    </contour>
  </outline>
</glyph>
<glyph name="cent.rvrn" format="2">
  <advance width="1024"/>
  <outline>
    <contour>
      <point x="89" y="475" type="qcurve" smooth="yes"/>
      <point x="89" y="714"/>
      <point x="350" y="1022"/>
      <point x="576" y="1022" type="qcurve" smooth="yes"/>
      <point x="639" y="1022"/>
      <point x="760" y="989"/>
      <point x="790" y="965" type="qcurve"/>
      <point x="822" y="1019" type="line"/>
      <point x="910" y="990" type="line"/>
      <point x="926" y="664" type="line"/>
      <point x="828" y="647" type="line"/>
      <point x="809" y="715" type="line" smooth="yes"/>
      <point x="787" y="794"/>
      <point x="651" y="911"/>
      <point x="577" y="911" type="qcurve" smooth="yes"/>
      <point x="438" y="911"/>
      <point x="269" y="711"/>
      <point x="269" y="517" type="qcurve" smooth="yes"/>
      <point x="269" y="315"/>
      <point x="469" y="108"/>
      <point x="639" y="108" type="qcurve" smooth="yes"/>
      <point x="743" y="108"/>
      <point x="885" y="177"/>
      <point x="940" y="228" type="qcurve"/>
      <point x="991" y="168" type="line"/>
      <point x="944" y="105"/>
      <point x="750" y="-22"/>
      <point x="600" y="-22" type="qcurve" smooth="yes"/>
      <point x="369" y="-22"/>
      <point x="89" y="246"/>
    </contour>
    <contour>
      <point x="499" y="-210" type="line"/>
      <point x="499" y="52" type="line"/>
      <point x="526" y="52" type="line"/>
      <point x="526" y="78" type="line"/>
      <point x="630" y="78" type="line"/>
      <point x="630" y="52" type="line"/>
      <point x="659" y="52" type="line"/>
      <point x="659" y="-160" type="line"/>
    </contour>
    <contour>
      <point x="498" y="1170" type="line"/>
      <point x="658" y="1209" type="line"/>
      <point x="658" y="988" type="line"/>
      <point x="630" y="988" type="line"/>
      <point x="630" y="960" type="line"/>
      <point x="526" y="960" type="line"/>
      <point x="526" y="988" type="line"/>
      <point x="498" y="988" type="line"/>
    </contour>
  </outline>
</glyph>
<glyph name="che.bgr" format="2">
  <advance width="1293"/>
  <outline>
    <contour>
      <point x="712" y="0" type="line"/>
      <point x="712" y="80" type="line"/>
      <point x="870" y="115" type="line"/>
      <point x="872" y="500" type="line"/>
      <point x="870" y="842" type="line"/>
      <point x="732" y="872" type="line"/>
      <point x="732" y="966" type="line"/>
      <point x="980" y="1000" type="line"/>
      <point x="1015" y="1000" type="line"/>
      <point x="1040" y="964" type="line"/>
      <point x="1038" y="501" type="line"/>
      <point x="1040" y="115" type="line"/>
      <point x="1188" y="80" type="line"/>
      <point x="1188" y="0" type="line"/>
    </contour>
    <contour>
      <point x="399" y="964" type="line"/>
      <point x="398" y="711" type="line" smooth="yes"/>
      <point x="398" y="591"/>
      <point x="513" y="493"/>
      <point x="636" y="493" type="qcurve" smooth="yes"/>
      <point x="732" y="493"/>
      <point x="875" y="520"/>
      <point x="955" y="552" type="qcurve"/>
      <point x="955" y="459" type="line"/>
      <point x="877" y="427"/>
      <point x="725" y="393"/>
      <point x="604" y="393" type="qcurve" smooth="yes"/>
      <point x="430" y="393"/>
      <point x="232" y="545"/>
      <point x="231" y="711" type="qcurve" smooth="yes"/>
      <point x="229" y="842" type="line"/>
      <point x="81" y="872" type="line"/>
      <point x="81" y="966" type="line"/>
      <point x="339" y="1000" type="line"/>
      <point x="374" y="1000" type="line"/>
    </contour>
  </outline>
</glyph>
<glyph name="diagonalbarl" format="2">
  <advance width="679"/>
  <outline>
    <contour>
      <point x="300" y="807" type="line"/>
      <point x="565" y="1026" type="line"/>
      <point x="645" y="884" type="line"/>
      <point x="375" y="690" type="line"/>
      <point x="109" y="469" type="line"/>
      <point x="25" y="614" type="line"/>
    </contour>
  </outline>
</glyph>
<glyph name="dieresiscomb.case" format="2">
  <advance width="306"/>
  <anchor x="153" y="1500" name="_top"/>
  <anchor x="153" y="1901" name="top"/>
  <outline>
    <contour>
      <point x="-193" y="1787" type="qcurve" smooth="yes"/>
      <point x="-193" y="1842"/>
      <point x="-133" y="1901"/>
      <point x="-77" y="1901" type="qcurve" smooth="yes"/>
      <point x="-24" y="1901"/>
      <point x="39" y="1838"/>
      <point x="39" y="1787" type="qcurve" smooth="yes"/>
      <point x="39" y="1733"/>
      <point x="-20" y="1674"/>
      <point x="-77" y="1674" type="qcurve" smooth="yes"/>
      <point x="-130" y="1674"/>
      <point x="-193" y="1736"/>
    </contour>
    <contour>
      <point x="267" y="1787" type="qcurve" smooth="yes"/>
      <point x="267" y="1842"/>
      <point x="327" y="1901"/>
      <point x="383" y="1901" type="qcurve" smooth="yes"/>
      <point x="436" y="1901"/>
      <point x="499" y="1838"/>
      <point x="499" y="1787" type="qcurve" smooth="yes"/>
      <point x="499" y="1733"/>
      <point x="440" y="1674"/>
      <point x="383" y="1674" type="qcurve" smooth="yes"/>
      <point x="330" y="1674"/>
      <point x="267" y="1736"/>
    </contour>
  </outline>
</glyph>
<glyph name="eight.lc" format="2">
  <advance width="1066"/>
  <outline>
    <contour>
      <point x="67" y="326" type="qcurve" smooth="yes"/>
      <point x="67" y="490"/>
      <point x="296" y="702"/>
      <point x="434" y="745" type="qcurve"/>
      <point x="513" y="682" type="line"/>
      <point x="378" y="633"/>
      <point x="208" y="456"/>
      <point x="208" y="341" type="qcurve" smooth="yes"/>
      <point x="208" y="218"/>
      <point x="378" y="86"/>
      <point x="522" y="86" type="qcurve" smooth="yes"/>
      <point x="657" y="86"/>
      <point x="834" y="230"/>
      <point x="834" y="345" type="qcurve" smooth="yes"/>
      <point x="834" y="441"/>
      <point x="712" y="564"/>
      <point x="529" y="640" type="qcurve" smooth="yes"/>
      <point x="340" y="719"/>
      <point x="153" y="901"/>
      <point x="156" y="1035" type="qcurve" smooth="yes"/>
      <point x="159" y="1181"/>
      <point x="388" y="1360"/>
      <point x="562" y="1360" type="qcurve" smooth="yes"/>
      <point x="718" y="1360"/>
      <point x="918" y="1199"/>
      <point x="920" y="1081" type="qcurve" smooth="yes"/>
      <point x="922" y="949"/>
      <point x="783" y="780"/>
      <point x="651" y="716" type="qcurve"/>
      <point x="561" y="778" type="line"/>
      <point x="675" y="831"/>
      <point x="787" y="969"/>
      <point x="787" y="1055" type="qcurve" smooth="yes"/>
      <point x="787" y="1147"/>
      <point x="654" y="1248"/>
      <point x="552" y="1248" type="qcurve" smooth="yes"/>
      <point x="448" y="1248"/>
      <point x="305" y="1139"/>
      <point x="305" y="1054" type="qcurve" smooth="yes"/>
      <point x="305" y="971"/>
      <point x="436" y="861"/>
      <point x="631" y="781" type="qcurve" smooth="yes"/>
      <point x="821" y="702"/>
      <point x="999" y="527"/>
      <point x="999" y="367" type="qcurve" smooth="yes"/>
      <point x="999" y="205"/>
      <point x="728" y="-21"/>
      <point x="515" y="-21" type="qcurve" smooth="yes"/>
      <point x="306" y="-21"/>
      <point x="67" y="159"/>
    </contour>
  </outline>
</glyph>
<glyph name="en.bgr" format="2">
  <advance width="1326"/>
  <outline>
    <contour>
      <point x="338" y="574" type="line"/>
      <point x="662" y="571" type="line"/>
      <point x="988" y="574" type="line"/>
      <point x="988" y="469" type="line"/>
      <point x="662" y="471" type="line"/>
      <point x="338" y="469" type="line"/>
    </contour>
    <contour>
      <point x="105" y="0" type="line"/>
      <point x="105" y="80" type="line"/>
      <point x="253" y="115" type="line"/>
      <point x="255" y="500" type="line"/>
      <point x="253" y="842" type="line"/>
      <point x="105" y="872" type="line"/>
      <point x="105" y="966" type="line"/>
      <point x="363" y="1000" type="line"/>
      <point x="398" y="1000" type="line"/>
      <point x="423" y="964" type="line"/>
      <point x="421" y="500" type="line"/>
      <point x="423" y="115" type="line"/>
      <point x="561" y="80" type="line"/>
      <point x="561" y="0" type="line"/>
    </contour>
    <contour>
      <point x="765" y="0" type="line"/>
      <point x="765" y="80" type="line"/>
      <point x="903" y="115" type="line"/>
      <point x="905" y="500" type="line"/>
      <point x="903" y="842" type="line"/>
      <point x="765" y="872" type="line"/>
      <point x="765" y="966" type="line"/>
      <point x="1013" y="1000" type="line"/>
      <point x="1048" y="1000" type="line"/>
      <point x="1073" y="964" type="line"/>
      <point x="1071" y="500" type="line"/>
      <point x="1073" y="115" type="line"/>
      <point x="1221" y="80" type="line"/>
      <point x="1221" y="0" type="line"/>
    </contour>
  </outline>
</glyph>
<glyph name="five.lc" format="2">
  <advance width="947"/>
  <outline>
    <contour>
      <point x="683" y="99" type="qcurve" smooth="yes"/>
      <point x="678" y="246"/>
      <point x="450" y="380"/>
      <point x="280" y="380" type="qcurve" smooth="yes"/>
      <point x="154" y="380" type="line"/>
      <point x="110" y="450" type="line"/>
      <point x="179" y="1057" type="line"/>
      <point x="205" y="1090" type="line"/>
      <point x="804" y="1090" type="line"/>
      <point x="804" y="924" type="line"/>
      <point x="290" y="924" type="line"/>
      <point x="281" y="913" type="line"/>
      <point x="260" y="723"/>
      <point x="237" y="515"/>
      <point x="207" y="470" type="qcurve"/>
      <point x="372" y="500" type="line"/>
      <point x="597" y="497"/>
      <point x="866" y="300"/>
      <point x="866" y="101" type="qcurve" smooth="yes"/>
      <point x="866" y="-125"/>
      <point x="504" y="-390"/>
      <point x="199" y="-390" type="qcurve" smooth="yes"/>
      <point x="152" y="-390"/>
      <point x="49" y="-383"/>
      <point x="14" y="-375" type="qcurve"/>
      <point x="41" y="-271" type="line"/>
      <point x="82" y="-276"/>
      <point x="141" y="-279"/>
      <point x="182" y="-279" type="qcurve" smooth="yes"/>
      <point x="421" y="-279"/>
      <point x="689" y="-92"/>
    </contour>
  </outline>
</glyph>
<glyph name="five.lf" format="2">
  <advance width="1066"/>
  <outline>
    <contour>
      <point x="27" y="143" type="qcurve"/>
      <point x="96" y="250" type="line"/>
      <point x="153" y="201"/>
      <point x="335" y="111"/>
      <point x="469" y="111" type="qcurve" smooth="yes"/>
      <point x="604" y="111"/>
      <point x="793" y="272"/>
      <point x="793" y="444" type="qcurve" smooth="yes"/>
      <point x="793" y="613"/>
      <point x="509" y="796"/>
      <point x="294" y="796" type="qcurve" smooth="yes"/>
      <point x="182" y="796" type="line"/>
      <point x="139" y="850" type="line"/>
      <point x="207" y="1467" type="line"/>
      <point x="234" y="1500" type="line"/>
      <point x="893" y="1500" type="line"/>
      <point x="883" y="1324" type="line"/>
      <point x="309" y="1324" type="line"/>
      <point x="299" y="1313" type="line"/>
      <point x="247" y="905" type="line"/>
      <point x="389" y="947" type="line"/>
      <point x="646" y="947"/>
      <point x="981" y="721"/>
      <point x="981" y="502" type="qcurve" smooth="yes"/>
      <point x="981" y="261"/>
      <point x="689" y="-22"/>
      <point x="490" y="-22" type="qcurve" smooth="yes"/>
      <point x="337" y="-22"/>
      <point x="96" y="73"/>
    </contour>
  </outline>
</glyph>
<glyph name="five.tab" format="2">
  <advance width="1050"/>
  <outline>
    <contour>
      <point x="63" y="143" type="qcurve"/>
      <point x="127" y="250" type="line"/>
      <point x="181" y="201"/>
      <point x="351" y="107"/>
      <point x="476" y="111" type="qcurve" smooth="yes"/>
      <point x="603" y="115"/>
      <point x="771" y="272"/>
      <point x="771" y="444" type="qcurve" smooth="yes"/>
      <point x="771" y="613"/>
      <point x="529" y="796"/>
      <point x="313" y="796" type="qcurve" smooth="yes"/>
      <point x="208" y="796" type="line"/>
      <point x="168" y="850" type="line"/>
      <point x="231" y="1467" type="line"/>
      <point x="257" y="1500" type="line"/>
      <point x="873" y="1500" type="line"/>
      <point x="863" y="1324" type="line"/>
      <point x="332" y="1324" type="line"/>
      <point x="322" y="1313" type="line"/>
      <point x="274" y="905" type="line"/>
      <point x="411" y="937" type="line"/>
      <point x="652" y="937"/>
      <point x="955" y="711"/>
      <point x="955" y="492" type="qcurve" smooth="yes"/>
      <point x="955" y="251"/>
      <point x="682" y="-22"/>
      <point x="496" y="-22" type="qcurve" smooth="yes"/>
      <point x="353" y="-22"/>
      <point x="127" y="73"/>
    </contour>
  </outline>
</glyph>
<glyph name="four.lc" format="2">
  <advance width="1196"/>
  <outline>
    <contour>
      <point x="740" y="-376" type="line"/>
      <point x="749" y="119" type="line"/>
      <point x="749" y="865" type="line"/>
      <point x="234" y="204" type="line"/>
      <point x="240" y="194" type="line"/>
      <point x="1172" y="168" type="line"/>
      <point x="1172" y="72" type="line"/>
      <point x="93" y="68" type="line"/>
      <point x="74" y="174" type="line"/>
      <point x="803" y="1107" type="line"/>
      <point x="890" y="1070" type="line"/>
      <point x="917" y="1054" type="line"/>
      <point x="911" y="121" type="line"/>
      <point x="911" y="-376" type="line"/>
    </contour>
  </outline>
</glyph>
<glyph name="four.tab" format="2">
  <advance width="1050"/>
  <outline>
    <contour>
      <point x="8" y="554" type="line"/>
      <point x="688" y="1547" type="line"/>
      <point x="785" y="1510" type="line"/>
      <point x="817" y="1459" type="line"/>
      <point x="811" y="491" type="line"/>
      <point x="811" y="129" type="line"/>
      <point x="1007" y="94" type="line"/>
      <point x="1007" y="0" type="line"/>
      <point x="439" y="0" type="line"/>
      <point x="439" y="94" type="line"/>
      <point x="635" y="129" type="line"/>
      <point x="644" y="489" type="line"/>
      <point x="644" y="1295" type="line"/>
      <point x="169" y="574" type="line"/>
      <point x="175" y="564" type="line"/>
      <point x="1012" y="538" type="line"/>
      <point x="1012" y="442" type="line"/>
      <point x="28" y="438" type="line"/>
    </contour>
  </outline>
</glyph>
<glyph name="horizontalbarH" format="2">
  <advance width="1416"/>
  <outline>
    <contour>
      <point x="1381" y="997" type="line"/>
      <point x="1199" y="995" type="line"/>
      <point x="1199" y="1132" type="line"/>
      <point x="1391" y="1134" type="line"/>
    </contour>
    <contour>
      <point x="34" y="995" type="line"/>
      <point x="25" y="1132" type="line"/>
      <point x="224" y="1132" type="line"/>
      <point x="224" y="995" type="line"/>
    </contour>
    <contour>
      <point x="224" y="995" type="line"/>
      <point x="224" y="1132" type="line"/>
      <point x="1199" y="1132" type="line"/>
      <point x="1199" y="995" type="line"/>
    </contour>
  </outline>
</glyph>
<glyph name="hungarumlautcomb.case" format="2">
  <advance width="306"/>
  <anchor x="153" y="1500" name="_top"/>
  <anchor x="153" y="1994" name="top"/>
  <outline>
    <contour>
      <point x="157" y="1916" type="qcurve" smooth="yes"/>
      <point x="157" y="1869"/>
      <point x="114" y="1832"/>
      <point x="76" y="1799" type="qcurve" smooth="yes"/>
      <point x="-167" y="1592" type="line"/>
      <point x="-241" y="1668" type="line"/>
      <point x="-62" y="1895" type="line" smooth="yes"/>
      <point x="-30" y="1935"/>
      <point x="25" y="1994"/>
      <point x="62" y="1994" type="qcurve" smooth="yes"/>
      <point x="96" y="1994"/>
      <point x="157" y="1951"/>
    </contour>
    <contour>
      <point x="547" y="1916" type="qcurve" smooth="yes"/>
      <point x="547" y="1869"/>
      <point x="504" y="1832"/>
      <point x="466" y="1799" type="qcurve" smooth="yes"/>
      <point x="223" y="1592" type="line"/>
      <point x="149" y="1668" type="line"/>
      <point x="329" y="1895" type="line" smooth="yes"/>
      <point x="361" y="1935"/>
      <point x="415" y="1994"/>
      <point x="452" y="1994" type="qcurve" smooth="yes"/>
      <point x="486" y="1994"/>
      <point x="547" y="1951"/>
    </contour>
  </outline>
</glyph>
<glyph name="jdotless" format="2">
  <advance width="542"/>
  <anchor x="282" y="-436" name="bottom"/>
  <anchor x="275" y="991" name="top"/>
  <outline>
    <contour>
      <point x="-14" y="-479" type="qcurve"/>
      <point x="-14" y="-401" type="line"/>
      <point x="130" y="-397"/>
      <point x="246" y="-294"/>
      <point x="246" y="-140" type="qcurve" smooth="yes"/>
      <point x="245" y="525" type="line"/>
      <point x="241" y="873" type="line"/>
      <point x="59" y="903" type="line"/>
      <point x="59" y="964" type="line"/>
      <point x="283" y="998" type="line"/>
      <point x="331" y="998" type="line"/>
      <point x="354" y="959" type="line"/>
      <point x="349" y="525" type="line"/>
      <point x="350" y="-122" type="line" smooth="yes"/>
      <point x="351" y="-301"/>
      <point x="187" y="-490"/>
    </contour>
  </outline>
</glyph>
<glyph name="nine.lc" format="2">
  <advance width="1166"/>
  <outline>
    <contour>
      <point x="1073" y="598" type="qcurve" smooth="yes"/>
      <point x="1073" y="271"/>
      <point x="629" y="-274"/>
      <point x="283" y="-380" type="qcurve"/>
      <point x="251" y="-284" type="line"/>
      <point x="524" y="-187"/>
      <point x="880" y="280"/>
      <point x="880" y="602" type="qcurve" smooth="yes"/>
      <point x="880" y="812"/>
      <point x="717" y="1005"/>
      <point x="580" y="1005" type="qcurve" smooth="yes"/>
      <point x="444" y="1005"/>
      <point x="276" y="839"/>
      <point x="276" y="684" type="qcurve" smooth="yes"/>
      <point x="276" y="547"/>
      <point x="407" y="431"/>
      <point x="508" y="431" type="qcurve" smooth="yes"/>
      <point x="571" y="431"/>
      <point x="674" y="458"/>
      <point x="708" y="478" type="qcurve"/>
      <point x="740" y="415" type="line"/>
      <point x="690" y="368"/>
      <point x="550" y="312"/>
      <point x="475" y="312" type="qcurve" smooth="yes"/>
      <point x="294" y="312"/>
      <point x="95" y="513"/>
      <point x="95" y="678" type="qcurve" smooth="yes"/>
      <point x="95" y="873"/>
      <point x="375" y="1114"/>
      <point x="583" y="1114" type="qcurve" smooth="yes"/>
      <point x="808" y="1114"/>
      <point x="1073" y="852"/>
    </contour>
  </outline>
</glyph>
<glyph name="one.lf" format="2">
  <advance width="890"/>
  <outline>
    <contour>
      <point x="111" y="0" type="line"/>
      <point x="111" y="94" type="line"/>
      <point x="367" y="129" type="line"/>
      <point x="367" y="754" type="line"/>
      <point x="365" y="1352" type="line"/>
      <point x="107" y="1386" type="line"/>
      <point x="107" y="1490" type="line"/>
      <point x="517" y="1513" type="line"/>
      <point x="549" y="1478" type="line"/>
      <point x="543" y="754" type="line"/>
      <point x="543" y="129" type="line"/>
      <point x="799" y="94" type="line"/>
      <point x="799" y="0" type="line"/>
    </contour>
  </outline>
</glyph>
<glyph name="ringcomb.case" format="2">
  <advance width="306"/>
  <anchor x="153" y="1500" name="_top"/>
  <anchor x="153" y="2056" name="top"/>
  <outline>
    <contour>
      <point x="-64" y="1848" type="qcurve" smooth="yes"/>
      <point x="-64" y="1939"/>
      <point x="58" y="2056"/>
      <point x="153" y="2056" type="qcurve" smooth="yes"/>
      <point x="248" y="2056"/>
      <point x="370" y="1939"/>
      <point x="370" y="1848" type="qcurve" smooth="yes"/>
      <point x="370" y="1757"/>
      <point x="248" y="1640"/>
      <point x="153" y="1640" type="qcurve" smooth="yes"/>
      <point x="58" y="1640"/>
      <point x="-64" y="1757"/>
    </contour>
    <contour>
      <point x="50" y="1848" type="qcurve" smooth="yes"/>
      <point x="50" y="1802"/>
      <point x="106" y="1745"/>
      <point x="153" y="1745" type="qcurve" smooth="yes"/>
      <point x="203" y="1745"/>
      <point x="256" y="1798"/>
      <point x="256" y="1848" type="qcurve" smooth="yes"/>
      <point x="256" y="1894"/>
      <point x="200" y="1951"/>
      <point x="153" y="1951" type="qcurve" smooth="yes"/>
      <point x="103" y="1951"/>
      <point x="50" y="1898"/>
    </contour>
  </outline>
</glyph>
<glyph name="sha.bgr" format="2">
  <advance width="1950"/>
  <outline>
    <contour>
      <point x="885" y="842" type="line"/>
      <point x="737" y="872" type="line"/>
      <point x="737" y="966" type="line"/>
      <point x="995" y="1000" type="line"/>
      <point x="1030" y="1000" type="line"/>
      <point x="1055" y="964" type="line"/>
      <point x="1053" y="473" type="line"/>
      <point x="1053" y="288" type="line" smooth="yes"/>
      <point x="1053" y="222"/>
      <point x="1155" y="113"/>
      <point x="1250" y="113" type="qcurve" smooth="yes"/>
      <point x="1328" y="113"/>
      <point x="1490" y="189"/>
      <point x="1542" y="265" type="qcurve"/>
      <point x="1543" y="473" type="line"/>
      <point x="1541" y="842" type="line"/>
      <point x="1403" y="872" type="line"/>
      <point x="1403" y="966" type="line"/>
      <point x="1651" y="1000" type="line"/>
      <point x="1686" y="1000" type="line"/>
      <point x="1711" y="964" type="line"/>
      <point x="1709" y="473" type="line"/>
      <point x="1711" y="148" type="line"/>
      <point x="1859" y="118" type="line"/>
      <point x="1859" y="34" type="line"/>
      <point x="1601" y="0" type="line"/>
      <point x="1566" y="27" type="line"/>
      <point x="1542" y="147" type="line"/>
      <point x="1485" y="72"/>
      <point x="1296" y="-21"/>
      <point x="1194" y="-21" type="qcurve" smooth="yes"/>
      <point x="1072" y="-21"/>
      <point x="923" y="74"/>
      <point x="898" y="159" type="qcurve"/>
      <point x="828" y="71"/>
      <point x="642" y="-21"/>
      <point x="538" y="-21" type="qcurve" smooth="yes"/>
      <point x="384" y="-21"/>
      <point x="229" y="128"/>
      <point x="229" y="258" type="qcurve" smooth="yes"/>
      <point x="229" y="330"/>
      <point x="234" y="448"/>
      <point x="234" y="473" type="qcurve" smooth="yes"/>
      <point x="229" y="842" type="line"/>
      <point x="81" y="872" type="line"/>
      <point x="81" y="966" type="line"/>
      <point x="339" y="1000" type="line"/>
      <point x="374" y="1000" type="line"/>
      <point x="399" y="964" type="line"/>
      <point x="397" y="473" type="line"/>
      <point x="397" y="288" type="line" smooth="yes"/>
      <point x="397" y="222"/>
      <point x="499" y="113"/>
      <point x="594" y="113" type="qcurve" smooth="yes"/>
      <point x="674" y="113"/>
      <point x="841" y="188"/>
      <point x="892" y="264" type="qcurve"/>
      <point x="892" y="306"/>
      <point x="891" y="412"/>
      <point x="890" y="460"/>
      <point x="890" y="473" type="qcurve" smooth="yes"/>
    </contour>
  </outline>
</glyph>
<glyph name="six.lf" format="2">
  <advance width="1226"/>
  <outline>
    <contour>
      <point x="99" y="619" type="qcurve" smooth="yes"/>
      <point x="99" y="947"/>
      <point x="529" y="1461"/>
      <point x="910" y="1579" type="qcurve"/>
      <point x="946" y="1481" type="line"/>
      <point x="646" y="1374"/>
      <point x="282" y="976"/>
      <point x="282" y="616" type="qcurve" smooth="yes"/>
      <point x="282" y="358"/>
      <point x="499" y="89"/>
      <point x="663" y="89" type="qcurve" smooth="yes"/>
      <point x="790" y="89"/>
      <point x="954" y="290"/>
      <point x="954" y="457" type="qcurve" smooth="yes"/>
      <point x="954" y="625"/>
      <point x="780" y="793"/>
      <point x="660" y="793" type="qcurve" smooth="yes"/>
      <point x="581" y="793"/>
      <point x="500" y="774"/>
      <point x="466" y="763" type="qcurve"/>
      <point x="428" y="833" type="line"/>
      <point x="466" y="869"/>
      <point x="609" y="926"/>
      <point x="693" y="926" type="qcurve" smooth="yes"/>
      <point x="900" y="926"/>
      <point x="1150" y="686"/>
      <point x="1150" y="519" type="qcurve" smooth="yes"/>
      <point x="1150" y="258"/>
      <point x="875" y="-22"/>
      <point x="665" y="-22" type="qcurve" smooth="yes"/>
      <point x="415" y="-22"/>
      <point x="99" y="337"/>
    </contour>
  </outline>
</glyph>
<glyph name="tse.bgr" format="2">
  <advance width="1319"/>
  <outline>
    <contour>
      <point x="1043" y="0" type="line"/>
      <point x="945" y="0" type="line"/>
      <point x="910" y="27" type="line"/>
      <point x="886" y="147" type="line"/>
      <point x="829" y="72"/>
      <point x="640" y="-21"/>
      <point x="538" y="-21" type="qcurve" smooth="yes"/>
      <point x="384" y="-21"/>
      <point x="229" y="128"/>
      <point x="229" y="258" type="qcurve" smooth="yes"/>
      <point x="229" y="330"/>
      <point x="234" y="448"/>
      <point x="234" y="473" type="qcurve" smooth="yes"/>
      <point x="229" y="842" type="line"/>
      <point x="81" y="872" type="line"/>
      <point x="81" y="966" type="line"/>
      <point x="339" y="1000" type="line"/>
      <point x="374" y="1000" type="line"/>
      <point x="399" y="964" type="line"/>
      <point x="397" y="473" type="line"/>
      <point x="397" y="288" type="line" smooth="yes"/>
      <point x="397" y="222"/>
      <point x="499" y="113"/>
      <point x="594" y="113" type="qcurve" smooth="yes"/>
      <point x="672" y="113"/>
      <point x="834" y="189"/>
      <point x="886" y="265" type="qcurve"/>
      <point x="887" y="473" type="line"/>
      <point x="885" y="842" type="line"/>
      <point x="747" y="872" type="line"/>
      <point x="747" y="966" type="line"/>
      <point x="995" y="1000" type="line"/>
      <point x="1030" y="1000" type="line"/>
      <point x="1055" y="964" type="line"/>
      <point x="1053" y="473" type="line"/>
      <point x="1055" y="105" type="line"/>
      <point x="1214" y="105" type="line"/>
      <point x="1224" y="-318" type="line"/>
      <point x="1132" y="-318" type="line"/>
    </contour>
  </outline>
</glyph>
